<svg xmlns="http://www.w3.org/2000/svg" width="300" height="300" viewBox="0 0 300 300" version="1.1">
	<path d="M 42.277 48.136 C 37.867 49.377, 32.459 55.218, 30.518 60.837 C 29.632 63.402, 28.646 69.100, 28.327 73.500 C 27.601 83.515, 29.396 91.132, 35.396 103.500 L 39.762 112.500 40.253 128.500 C 40.652 141.514, 41.158 145.713, 42.963 151 C 46.587 161.613, 50.872 168.616, 60.191 179.161 C 65.621 185.305, 68.992 189.967, 68.978 191.315 C 68.966 192.517, 68.034 195.525, 66.908 198 C 60.561 211.943, 65.188 223.031, 81 231.767 C 84.575 233.742, 90.521 237.308, 94.213 239.690 C 105.736 247.125, 113.040 248.733, 126.772 246.860 C 131.572 246.205, 143.600 245.631, 153.500 245.585 C 170.710 245.504, 171.741 245.386, 177 242.904 C 180.025 241.476, 184.630 238.672, 187.233 236.674 C 189.835 234.675, 195.685 231.170, 200.233 228.885 C 208.605 224.678, 217.426 219.083, 224.237 213.661 C 229.029 209.846, 231.709 204.170, 232.574 196 C 232.953 192.425, 233.625 188.796, 234.067 187.935 C 234.510 187.075, 238.293 182.378, 242.474 177.497 C 255.849 161.886, 259.871 150.760, 260.433 127.815 C 260.746 115.075, 261.061 112.895, 263.302 108 C 269.224 95.063, 270.463 90.042, 270.459 79 C 270.454 66.486, 268.564 59.917, 263.452 54.653 C 255.484 46.449, 248.229 47.917, 231.765 61.064 C 225.569 66.012, 218.510 71.001, 216.079 72.152 C 213.647 73.303, 207.122 74.873, 201.579 75.640 C 183.744 78.107, 176.811 80.952, 162.163 91.817 C 150.595 100.397, 149.287 100.327, 136 90.416 C 123.922 81.406, 114.871 77.750, 100.432 76.049 C 86.637 74.424, 83.753 73.353, 76.788 67.268 C 56.571 49.607, 49.999 45.964, 42.277 48.136 M 40.492 54.250 C 39.143 57.573, 38.756 61.663, 38.718 73.001 C 38.674 86.221, 38.913 88.231, 41.417 95.751 C 43.076 100.731, 44.707 104, 45.534 104 C 46.287 104, 48.240 102.058, 49.873 99.684 C 53.522 94.380, 63.943 85.363, 70.309 82 C 73.169 80.489, 74.931 78.914, 74.761 78.019 C 74.607 77.205, 71.110 74.810, 66.990 72.698 C 59.064 68.635, 53.428 62.822, 49.103 54.250 C 47.488 51.048, 46.375 50, 44.588 50 C 42.736 50, 41.840 50.930, 40.492 54.250 M 249.897 56.250 C 245.572 64.822, 239.936 70.635, 232.010 74.698 C 227.890 76.810, 224.393 79.205, 224.239 80.019 C 224.069 80.914, 225.831 82.489, 228.691 84 C 235.057 87.363, 245.478 96.380, 249.127 101.684 C 250.760 104.058, 252.713 106, 253.466 106 C 254.293 106, 255.924 102.731, 257.583 97.751 C 260.087 90.231, 260.326 88.221, 260.282 75.001 C 260.226 58.170, 258.651 52, 254.412 52 C 252.625 52, 251.512 53.048, 249.897 56.250 M 86.265 88.542 C 69.996 92.923, 57.199 105.233, 52.593 120.932 C 49.199 132.502, 51.289 149.472, 57.327 159.360 C 61.259 165.800, 69.779 173.619, 76.330 176.800 C 94.696 185.719, 114.316 182.934, 129.019 169.322 C 139.264 159.836, 144 148.829, 144 134.500 C 144 129.994, 143.289 123.939, 142.407 120.932 C 135.398 97.041, 109.717 82.225, 86.265 88.542 M 191.265 88.542 C 179.667 91.665, 167.806 100.355, 162.288 109.772 C 153.898 124.088, 153.915 145.583, 162.327 159.360 C 166.253 165.790, 174.780 173.619, 181.330 176.808 C 208.026 189.803, 239.132 176.274, 247.407 148.068 C 249.609 140.561, 249.470 127.690, 247.105 120.091 C 239.849 96.776, 214.296 82.339, 191.265 88.542 M 73.299 130.960 C 62.092 137.793, 66.964 156, 80 156 C 87.110 156, 92.993 149.888, 92.993 142.500 C 92.993 132.068, 82.023 125.640, 73.299 130.960 M 174.299 131.960 C 163.092 138.793, 167.964 157, 181 157 C 188.110 157, 193.993 150.888, 193.993 143.500 C 193.993 133.068, 183.023 126.640, 174.299 131.960 M 147.474 170.948 C 144.171 172.288, 133.120 183.672, 132.422 186.455 C 131.098 191.731, 136.405 194, 150 193.971 C 164.258 193.940, 169.901 191.728, 168.631 186.667 C 167.852 183.563, 158.693 173.410, 154.904 171.450 C 151.780 169.835, 150.442 169.745, 147.474 170.948 M 216.250 196.662 C 212.551 197.972, 212 198.549, 212 201.115 C 212 202.737, 212.623 205.555, 213.384 207.376 C 214.594 210.272, 215.144 210.633, 217.766 210.248 C 219.668 209.969, 222.522 208.024, 225.567 204.932 C 230.115 200.314, 230.297 199.924, 229.015 197.529 C 227.413 194.535, 223.088 194.242, 216.250 196.662 M 72.313 200.781 C 69.833 202.367, 68.810 207.251, 70.039 211.639 C 71.564 217.084, 79.101 222.496, 86.500 223.456 C 93.226 224.330, 94.745 223.040, 96.198 215.218 C 97.669 207.302, 97.446 207.068, 85 203.470 C 79.775 201.960, 75.050 200.566, 74.500 200.373 C 73.950 200.179, 72.966 200.363, 72.313 200.781 M 191.653 201.935 C 186.788 202.903, 182.380 204.326, 181.860 205.098 C 180.254 207.477, 181.564 214.907, 184.058 217.562 C 186.695 220.369, 189.883 220.624, 199.705 218.814 C 205.261 217.790, 206.349 217.226, 207.664 214.683 C 208.945 212.206, 208.991 211.038, 207.951 207.326 C 206.793 203.191, 203.864 199.889, 201.527 200.087 C 200.962 200.135, 196.519 200.967, 191.653 201.935 M 104.090 213.453 C 100.842 219.371, 100 221.935, 100 225.906 C 100 234.793, 103.185 238.026, 111.899 237.982 C 117.256 237.955, 135.504 233.477, 139.242 231.271 L 142.500 229.349 142.357 220.059 C 142.275 214.715, 141.672 209.756, 140.938 208.384 C 139.676 206.027, 139.484 206, 123.921 206 L 108.181 206 104.090 213.453 M 152.356 206.734 C 147.508 207.076, 147.187 207.269, 146.773 210.096 C 146.159 214.280, 147.518 228.947, 148.819 232.181 C 150.152 235.494, 155.115 236.455, 167.530 235.803 C 178.188 235.244, 180.004 233.902, 179.990 226.595 C 179.980 221.088, 176.488 212.230, 172.760 208.250 C 170.565 205.907, 167.386 205.671, 152.356 206.734" stroke="none" fill="black" fill-rule="evenodd"/>
</svg>