<svg version="1" xmlns="http://www.w3.org/2000/svg" width="400" height="400" viewBox="0 0 300.000000 300.000000"><path d="M37.5 49.9c-.3.5-.2 1.2.3 1.5.5.3.9-.1.9-.9 0-1.7-.3-1.9-1.2-.6zM42 50.7c0 .7-.4 1.3-.8 1.3s-.8 1-.9 2.1c-.1 1.2-.7 2.7-1.4 3.3-.9.8-1 .7-.4-.4.5-.8-.4-.4-1.8.9-1.5 1.4-2.7 2.7-2.7 2.9 0 .3.9-.3 2-1.3s2.1-1.6 2.1-1.4c.5 1.4.4 6.9-.1 6.9-.3 0-.6 4-.5 9 0 4.9.2 9 .5 9s.6 1.5.7 3.2c0 1.8.3 4.3.6 5.5.3 1.2-.5 4.2-1.9 7-1.4 2.6-1.9 4-1.1 3.1.8-1 1.7-1.5 2.1-1.1.4.4.4-.1 0-1-.4-1.2-.2-1.7.7-1.5.9.2 1.3-.4 1.1-1.7-.2-1.9-.2-1.9.9-.2.7 1.3.7 2.2 0 3.1-.8.9-.6 1.8.5 3.2 1.4 1.8 1.5 1.8.4-.4-.6-1.2-.7-2.2-.3-2.2.4 0 1.6 1.9 2.5 4.1 1.3 3 1.4 4 .4 3.6-.7-.3-1.3.1-1.3.8 0 1 .5 1.1 1.8.5 1.2-.7 2.1-.5 3 .7 1.2 1.4 1.1 1.5-1.1 1-1.4-.4-1.9-.4-1.2-.1.6.3 1.2 1.2 1.2 2s.5 1.4 1 1.4c.6 0 .9-.3.9-.8-.1-.4 0-.9.1-1.2.7-1.9.7-4.1-.1-4.6-.5-.3-.7-1-.4-1.5.4-.5.1-.9-.5-.9-.7 0-1 .7-.6 1.5.8 2.2-.2 1.8-1.5-.6-.6-1.2-.7-1.9-.1-1.5 1.2.7 5.4-2.8 4.5-3.8-.4-.4.1-.4 1.2 0 1.8.7 1.9.6.5-1.1-1.4-1.7-1.4-1.7.7-.4 2.1 1.2 2.1 1.4.5 2.4-1.9 1.1-2.7 3.5-1.2 3.5.5 0 1-.5 1-1.1 0-.5.5-.7 1-.4.6.3 1 .1 1-.4 0-.6.8-1.1 1.8-1.1 1.1.1.3.9-2 2.4l-3.8 2.3 2.5 1.3c1.4.7 2.3 1.5 2 1.8-.2.3-1.1-.1-2-.8-.9-.7-1.8-1-2.1-.7-.3.3.3 1.1 1.4 1.8 1.8 1.2 1.9 1.4.5 3.6-1.2 1.9-1.3 2.3-.2 2.3 1 .1.9.4-.3 1-1 .6-1.5 1.9-1.3 3.2.3 1.2 0 2.7-.6 3.5-.7.7-.8 1.3-.4 1.3s.2.6-.4 1.4c-.8 1-.9 1.6-.1 2.1.6.3.7 1.2.3 1.8-.9 1.4-1.2 8.7-.3 8.7.3 0 .6.9.7 2 .1 1.1-.3 2-.8 2-.6 0-.8-.4-.5-.8.2-.4 0-1.4-.6-2.2-.8-1.3-.9-1.3-.5.1.6 1.9-2.9 4.5-3.6 2.6-.3-.7-.6-.5-.6.5-.1 1.1.6 1.6 1.8 1.5 1.1 0 1.7-.5 1.5-.9-.3-.4 0-.8.7-.8.6 0 .9.8.6 2-.3 1.1.2 2.5 1.2 3.2 1.4 1.1 1.4 1.1.4-.3-1-1.3-1-1.6.1-1.6.8 0 1.3.8 1.1 1.9-.2 1 0 1.8.6 1.8.5 0 .9 1.1.9 2.5s.5 2.5 1 2.5c.6 0 1 .6 1 1.4 0 .7.7 1.9 1.5 2.6.8.7 1.2 1.6.9 2.1-.3.5 0 .9.5.9.6 0 1.1.6 1.1 1.4 0 .8.7 1.6 1.5 2 .8.3 1.4 1.1 1.3 1.8-.2.7.3 1.2.9 1.1.7-.2 1.2.2 1 .9-.1.7.5 1.2 1.3 1.3.8 0 1.5.5 1.5 1.2 0 .6.3 1.5.8 1.9.4.4.7.1.7-.6s1-.1 2.1 1.4c1.4 1.8 2.7 2.5 3.8 2.1.9-.3.1 1-1.8 2.9-2.8 2.9-3.1 3.6-1.8 4.1.9.4 1.4 1.5 1.2 2.6-.2 1.1 0 1.7.5 1.4 1.2-.7.6-3.5-.9-4.5-.7-.4-.9-1-.4-1.3 1.4-.9 4.6 2 3.8 3.5-.4.7.2.2 1.3-1.2 1.5-1.8 1.8-2.8 1-3.8-.6-.7-1.3-1-1.7-.7-.3.3.1 1 .8 1.4.7.5.9 1.1.4 1.4-1 .7-3.5-.6-3.5-1.8 0-1.7 3.4-2.8 4.3-1.4.4.7 2.2 1.4 3.8 1.4 3.7.1 5.4 1.5 4.1 3.5-.5.8-1.2 1.1-1.7.7-.4-.5-.1-1.2.6-1.6.8-.6.9-1.1.3-1.5-.6-.3-1.4.3-1.7 1.5-.6 1.6-.9 1.8-1.5.8-.5-.7-.6-1.7-.4-2.1.3-.4 0-.8-.5-.8-1 0-1.5 1.4-1.2 3.2 0 .5-.4.8-1.1.8-.8 0-.6.6.4 1.7 1.6 1.5 1.6 1.7.1 2.8-1.3 1-1.3 1.4-.3 2 .9.6 1.1.4.5-.5-.6-1-.4-1.2.9-.7 1 .4 1.5.3 1.1-.3-.3-.6-.1-1 .6-1s.4-.6-.7-1.4c-1-.8-1.5-1.8-1.1-2.2.4-.5 1.2-.3 1.6.4.4.8 1.5 1 2.7.6 1.5-.6 1.7-.4.7.6-.9 1-.7 2.1 1.3 4.9 2.8 4.2 3.2 6.6.5 3.4-1.6-1.9-2.1-2-3.7-.9-1 .8-2.5 1.2-3.4.9-1.2-.4-1.3-.3-.1.5 1 .7 2 .7 3.2-.1 1.8-1.1 4.9.5 4.9 2.6 0 .5-.9.2-2-.8-2.2-2-2.2-2-2.4 1.6-.1 1.5.3 2.6 1.1 2.6s.9-.6.2-1.8c-1.3-2.5-1.1-3.3.5-2 3 2.5.1 6.2-3.1 3.8-.7-.5-1.8-.5-2.4-.1-.8.5-.9.3-.4-.6.6-1 .4-1.2-.9-.7-1.1.5-1.5.3-1-.5s.2-.9-1.2-.4c-1 .5-2.4.9-3.1.9-.7 0-1.7 1.3-2.2 2.9-.6 1.6-1.5 2.7-2.1 2.3-.5-.3-1-.1-1 .4 0 .6.5 1.1 1.1 1.1.6 0 .9.9.6 2-.3 1.1-.1 2 .3 2 .5 0 1.2 1.6 1.6 3.5.3 1.9 1 3.2 1.5 2.9.5-.3.9 0 .9.6s.4.9.9.6c.4-.3 2.6 1.1 4.7 3.2 2.1 2 3.5 3.1 3.1 2.4-.5-.7-.3-1.2.7-1.2.8 0 1.7.4 2 .9.3.5 2.1.8 4 .6 3.2-.2 3.4 0 2.4 1.9-.8 1.5-.8 2.1.1 2.4.6.2.8.9.4 1.5-.4.7.1.6 1-.2 1.4-1.1 1.8-1.1 2.3.3.4 1 1.3 1.5 2 1.2 1.6-.6 1.8.3.4 2.4-.8 1.2-1 1.2-1 .1 0-.8-.3-1.1-.6-.8-1.3 1.3 1.8 3.6 4.4 3.3 1.5-.1 3.9.3 5.4 1.1 1.5.7 3.4 1 4.2.7 1.1-.4 1.6-.1 1.6 1 0 .9-.4 1.6-1 1.6-.5 0-1 .5-1 1.1 0 .8.5.8 1.5-.1 1.2-1 1.8-1 3.2.1.9.8 1.4.9 1 .2-.4-.6-.1-1.4.5-1.7.7-.3.6-.4-.4-.3-.9.1-1.8-.2-2-.7-.2-.5.7-1 1.9-1.1 1.2-.1 2 .2 1.7.6-.2.4.5 1.3 1.6 1.9 1.4.7 1.8 1.6 1.3 2.4-.4.6.2.1 1.3-1.2l2.1-2.4 1.7 2.3 1.7 2.4-.4-2.5c-.4-2.6-2.3-3.3-4.4-1.7-1.3.9-3.3.2-3.3-1.3 0-.4 1-.6 2.2-.2 1.3.3 1.9.1 1.5-.5-.7-1.1 2.2-2.8 3.1-1.8.3.3 0 .5-.6.5-1.8 0-1.5 1.6.3 1.8.8.1 2.2.3 3 .4 1.8.2 2 1.5.3 2.1-1 .3-.8.9.5 2.4.9 1.1 1.4 2.3 1 2.8-.5.4-.2.5.5.1 1.1-.6 1-1.2-.4-2.7-1.7-1.8-1.5-2 1.6-2.3.8-.1 1.4-.7 1.3-1.4-.3-1.3 2.3-1.2 4.4.1.7.5 2.1.3 3-.3 1.6-.9 1.5-1-.5-.5-1.2.4-2.2.3-2.1-.2.3-1.9-.2-3.3-1.2-3.3-.5 0-.8.4-.4.9.3.5 0 1.3-.6 1.7-.8.4-.9.3-.5-.4 1.1-1.8-.5-1.4-2.7.6-1.1.9-1.7 1.2-1.3.5.4-.8 0-1.1-1.4-.8-2.5.5-3.4-.9-1.6-2.4 1-.8 1.6-.9 2.1-.1.4.7 1.1.5 2.1-.5s2.4-1.3 4.1-.9c1.7.5 2.4.3 1.9-.4-.4-.7.4-.9 2.3-.7 2.5.3 2.9.1 2.5-1.3-.5-1.3-.4-1.4.4-.3.5.7 1.2.9 1.4.5.3-.5.4-.4.2.3-.5 2 .9 2.3 2.3.5 1.2-1.6 1.3-1.6.6.2-.4 1.3-.3 1.7.5 1.2.6-.3 1.3-.2 1.7.4.4.6 1.1.7 1.7.4.7-.4.8-.2.4.5-.5.8 0 1 1.8.7 1.4-.3 2.8 0 3.1.5.4.5 1.1.9 1.6.9.6 0 .7-.5.3-1.1-.5-.8-.1-.8 1.4 0 2.4 1.3 3.5 1.4 2.9.3-.3-.4 2.1-.7 5.4-.7 3.2.1 5.9-.2 5.9-.6 0-.4.7-.6 1.6-.5 2.4.4 6.5-3.6 5.3-5-.7-.8-.6-1.5.2-2 .7-.4.9-.3.6.3-.4.6.1 1.4 1 1.7 1.8.7 3.6-1.2 2.6-2.7-.3-.5 0-.7.8-.5.8.3 1.3 1.1 1.1 1.8-.2 1.1.1 1 1.5 0 1-.8 2-1.6 2.3-1.8.3-.2-.4-.2-1.4 0-1 .1-2.1-.2-2.3-.7-.2-.6.6-1.1 1.7-1.2 2-.2 4.7 3.3 4.1 5.2-.1.5.1.6.5.2.4-.4.9-1.5 1-2.3.1-.9 0-1.3-.3-1-.8.8-3.2-2.7-2.6-3.7.3-.5 1.1 0 1.8 1 1.3 1.7 1.4 1.7 3.4-.1 1.8-1.6 2.3-1.7 3.8-.5 1.7 1.2 1.7 1.2.1-.6-1.7-1.8-1.8-1.8-3.8 0-1.1 1-2.3 1.5-2.7 1.2-.4-.4.2-1.3 1.2-2 1.5-1.2 1.6-1.4.1-1.4-.9 0-1.6.4-1.6.8s-.9.6-2 .4c-1.1-.2-1.8 0-1.5.6.4.5.1.9-.4.9-.6 0-1.1-.5-1.1-1 0-.6-.9-1-2.1-1-1.1 0-1.7.5-1.4 1 .4.6 1 .8 1.5.5.5-.3 1.1-.1 1.5.4.3.6-.4.8-1.5.6-1.3-.3-1.8 0-1.4.7.4.6.3.8-.4.4-.6-.3-1.3-.2-1.7.4-1 1.7-2.4 1.1-2.2-1 .1-1 .3-1.7.5-1.5.3.2 1.1-.2 1.8-1 .8-.7 3.1-1.4 5.2-1.4 4.5 0 6.3-.4 8.1-1.5 1-.6 1.2-.5.7.2-.8 1.4.6 1.6 1.9.3.6-.5 2-1.2 3.3-1.6 1.7-.5 2.2-.2 2.3 1.2 0 1.1.6.5 1.7-1.7.9-1.9 2.1-3.8 2.7-4.2 1.2-.9 4.7 2.1 3.9 3.4-.4.6.3.5 1.5-.1 2.5-1.4 2.8-2.3.4-1.4-1 .4-1.4.2-1-.4.8-1.2-1.7-3.6-2.6-2.6-.4.3-.7 0-.7-.8 0-1.2-.2-1.1-1.1.1-.9 1.3-1 1.3-.6 0 .2-.8.9-1.5 1.5-1.5.5 0 1.4-.4 1.9-.9.4-.5.3-.7-.3-.3-.6.3-1.1 0-1.1-.8 0-2 .7-1.9 2.3.3 1.5 2.1 8.1 2.4 8.9.4.3-.7 1-1 1.6-.6.8.4.9.3.5-.5-.4-.6.5-2.4 2.3-4.1 1.6-1.7 2.7-3 2.5-3-.3 0 0-.9.6-1.9.7-1.4.7-2.2-.2-2.7-.7-.5-.8-.3-.3.6.5.9.4 1.1-.4.6-.6-.4-.9-1.7-.6-2.9.2-1.2.2-1.6-.1-.9-.3.6-1 1.2-1.5 1.2-.6 0-.7-.5-.3-1.2.5-.8.2-.9-1.2-.4-2.8 1.1-5.6 1.8-7.9 1.9-1.1.1-2.6.7-3.4 1.4-.8.9-1.7 1-2.5.4-.8-.7-1.1.3-1.2 3.4 0 2.5.3 4.2.9 3.8.5-.3.4.4-.2 1.4-.6 1.1-.7 2.3-.4 2.7.3.3.1.6-.5.6-1.2 0-1.6-2-1.3-4.9.2-.8-.2-1-1.1-.5-.9.5-.8.2.2-1.1 1.4-1.7 1.3-1.8-.2-1.2-1 .3-2.3.1-3-.6-1-1-7.3-1.6-7.3-.7 0 .1-1 .3-2.2.6-2.3.4-3.2-1-1.3-2.1.5-.3.6-1.3.3-2.3-.5-1.4-.2-1.3 1.1.3 1 1.1 1.5 1.5 1.2.9-.3-.7.7-1 2.9-.9 1.9.2 3.5-.2 3.5-.7 0-.5-1-.7-2.2-.3-1.9.5-2 .4-.6-.5 2.4-1.5 5.2-.2 3.7 1.7-1 1.1-.9 1.3.2 1.1.8-.2 1.3.2 1.2.9-.1.6.5 1 1.5.8.9-.1 2 .3 2.5.9.4.6.5-.4.2-2.2-.5-3-.4-3.2 2-2.8 1.7.3 2.3.1 1.9-.6-.4-.7-.2-.8.4-.4.7.4 1.2.2 1.2-.5 0-.9.3-.9 1.4.1 1.1.9 1.9.9 3.3 0 1.5-.9 1.4-1-.7-.4-2.2.6-2.3.5-1.1-.9.7-.9 1.7-1.4 2.2-1.1.5.3.6-.1.4-.8-.8-1.9 3.7-1.8 5.3.1 1.1 1.4 1.1 1.2.2-.7-.8-1.7-1.7-2.1-3.1-1.7-1.1.4-1.9.2-1.9-.4 0-1.1 1.3-1.5 3.7-1.2.6.1 1.5-.3 1.8-.9.4-.7 0-1-1-.8-1 .2-2-.2-2.2-.9-.3-.8.3-1.1 1.6-.8 1.2.2 2.1-.1 2.1-.6 0-.6.5-.7 1-.4.6.4.8 1 .5 1.5-.3.4.2 1.1 1 1.4 1.3.5 1.4.2.5-1.5-1.2-2.2.4-5.4 2.1-4.3.5.3.9 0 .9-.7 0-.9.3-.9 1.4 0 1.1.9 1.6.9 2.2 0 .4-.7.3-.9-.3-.6-.6.4-1.6 0-2.2-.7-.8-1-.9-1.6-.1-2.1.5-.3 1-.2 1 .2 0 .5 1 .9 2.3 1 2.2.2 2.2.2-.2-1.1-1.9-1-2.9-1.1-4.3-.3-1 .7-1.3 1.4-.7 1.8.7.4.4.9-.6 1.2-1.1.5-1.4.3-.9-.6.5-.8.2-.8-.9.2-.9.7-1.5 1.7-1.2 2.1.3.4-.2 1-1 1.3-.9.4-1.2.1-.8-.9.3-.7 0-1.4-.6-1.4s-1 .3-1 .7c.3 2-.2 3.4-1 2.8-.5-.3-1.2-.1-1.6.5-.4.6-1.2.8-1.8.4-.7-.3-.3.2.7 1 1.1.9 1.5 1.6 1 1.6-.6 0-1.6-.6-2.3-1.3-1.1-1-1.2-.9-.6.2.6 1 .4 1.2-.5.6s-1.1-.4-.5.6c.7 1.2.6 1.2-.8.1-1.2-1-2.1-1.1-3.4-.3-1.7 1-1.7 1 .2 1.2 1.1.1 2.3.1 2.8 0 2.1-.3-.6 4.2-3.7 6.2-2.4 1.6-2.5 1.6-2.3-.3.1-1.2.7-1.8 1.3-1.6.7.3 1.8-.2 2.4-1 1.1-1.3.7-1.8-1.2-1.5-.5 0-.8-.3-.8-.7 0-.5-.7-.9-1.6-.9-1.4 0-1.4.2.2 1.4 1 .7 1.3 1.3.8 1.3-.6 0-1.6-.6-2.3-1.3-1.1-.9-1.2-.9-.7 0s.2 1.1-.8.7c-.9-.3-1.6-.2-1.6.3s-.7 1-1.5 1-1.2-.3-1-.7c.2-.4-.2-.7-1-.7s-1.2.4-.9.9c.4.5-.3.4-1.4-.3-2.1-1.3-2.2-4-.1-6.5 1.3-1.6 3.3-.8 2.3.8-.5.7-.1.9.9.5 1.2-.4 1.4-.2 1 .9-.5 1.4-.3 1.4 1.5.3 1.6-1 1.8-1.6.9-2.2-.8-.6-.8-.7.3-.4.8.2 1.4 1 1.2 1.6-.4 2.1 1.9 1.1 3-1.4 1-2.2 1.2-2.3 2.3-.8.7.9 1.7 1.3 2.3.9 1.9-1.1 1.4-2.6-.5-1.9-1 .3-1.5.3-1.2-.1.4-.4 1.6-.8 2.7-1.1 1.6-.3 1.9 0 1.5 1.3-.6 1.5-.5 1.5 1.1.3.9-.8 1.5-2 1.2-2.6-.3-.9.2-1.1 1.6-.7 1.6.4 1.9.2 1.3-.8-.5-.8-.4-1.1.2-.7.6.4 2.2-.4 3.7-1.8 1.4-1.3 2.6-2 2.6-1.5 0 .6.4 1 .9 1 .6 0 .8-.9.6-2.1-.4-1.8-.2-1.9 1.2-.7 1.5 1.1 1.6 1.1 1-.4-.4-1.2-.2-1.5.9-1.1.9.3 1.4 0 1.2-.8-.2-.8.2-1.3.9-1.2.6.1 1.7-.5 2.5-1.4 1.1-1.5 1.1-1.6-.7-1-1.8.7-1.9.6-.3-.6 1-.8 1.4-1.7 1-2.1-.4-.4-.2-.6.3-.4.6.1 1.1-.2 1.3-.7.2-.6 1-1.7 1.8-2.6.8-.9 1.1-1.9.7-2.4-.5-.4-.3-.5.4-.1 1.4.8.6 3.6-1.1 3.6-.6 0-.4.5.4 1 1 .6 1.1 1 .3 1-.7 0-1.3.5-1.3 1.1 0 .5.4.8.9.4.5-.3 1.3 0 1.7.6.5.8 0 1-1.8.6-1.7-.5-2.5-.2-2.5.7 0 1 .8 1.1 2.6.6 1.4-.4 2.5-1.2 2.3-1.9-.1-.6.4-1.1 1-1.1.8 0 .6-.5-.4-1.1-.9-.5-1.5-1.6-1.2-2.4.4-.8 1-1.2 1.5-.9.5.3.7.9.4 1.4-.3.4.2 1 1 1.3 1 .4 1.2.1.8-1-.4-1.1-.2-1.4.5-.9.7.4 1.2.2 1.2-.4 0-.7-.7-1-1.5-.7-1.7.7-2.4-.3-3.1-3.8-.3-1.8 0-2.5 1.2-2.5 1.3 0 1.4-.3.5-1.4-.8-1-.9-1.6-.1-2.1.6-.3.8-1 .6-1.4-.3-.4-.1-1.3.4-2.1.8-1.3 1.1-1.3 2.2-.1.8.8.8 1.1.1.7-.7-.4-1 .1-.8 1.1.1 1 0 2.2-.4 2.8-1.2 2.1-.8 3.1 1.3 3.3 1.1 0 1.6-.2 1.1-.6-1.4-1-1.7-3.2-.5-3.2.5 0 1.4.8 2 1.7.8 1.5.9 1.3.6-1-.3-1.6-1-3.5-1.6-4.2-.8-.9-.8-1.4 0-1.7 1.3-.4.2-3.8-1.2-3.8-.6 0-.4.8.3 1.7 1.2 1.4 1.2 1.6 0 .8-1-.5-1.2-.4-.7.3.5.8.1 1-.9.5-.9-.3-1.3-.9-.8-1.2.5-.3.9-3.5.9-7-.1-5.1.4-7 2.2-9.8 2-2.9 2.1-3.7 1-5-.7-.9-1.2-1.8-1-2 .6-.8.1-2.3-.7-2.3-.6 0-.8.9-.6 2 .3 1.3 0 1.8-.7 1.4-.7-.4-.8-.2-.4.5.4.6 1.1.9 1.6.6.4-.3 1.1.2 1.4 1 .4 1.3.2 1.3-1.4.5-1.6-.8-1.8-.8-1.4.5.3.8 1.1 1.2 1.8.8.6-.3.2.3-.8 1.5-2.1 2.5-3.6 3.1-1.6.7.9-1.1.9-1.5.1-1.5-.7 0-1-.4-.6-.9.3-.5.1-1.2-.5-1.6-.6-.4-.8-1.1-.4-1.6.3-.5 0-1.8-.7-2.7-1.1-1.4-1.1-1.5.1-.5 2 1.8 3.5 1.6 2-.2-.7-.8-2-1.5-2.9-1.6-1.2 0-1.1-.2.4-.9 1.1-.5 1.4-.9.7-.9-1-.1-1-.6-.1-2.3 1-1.8.9-2-.7-1.4-1 .4-1.5.4-1.2 0 .4-.4.3-1.5-.3-2.5-.7-1.5-.6-2.1.6-2.5 1.1-.5 1.3-1 .5-1.9-1.5-1.8-2.2-5.7-.9-4.9.6.3.8.8.5 1.1-.9.9 1.4 4.4 2.4 3.8.6-.4.7.1.3 1.1-.5 1.3-.3 1.5.8.9 1.2-.8 1.2-.6 0 .8-1.5 1.8-2.6 2.3-1.6.7.3-.6-.1-1-.9-1-1 0-1.3.6-1 1.5.7 1.7 3 2 3.9.5.3-.5 1.3-1 2.2-1 1.6 0 .9 1.4-.8 1.6-.5.1-1.2.2-1.5.3-.3 0 .2 1.1 1 2.3 2 2.7 2 4.2.3 3.5-.8-.3-1.4.1-1.4.8 0 1 .5 1.1 1.8.4 2.4-1.2 2.9-1.1 2.3.5-.3.8 0 1.7.5 2.1.6.3.8 1.1.5 1.7-.4.7-.2.8.4.4.7-.4 1.2-.2 1.2.5s.3.9.7.6c.3-.4-.2-1.6-1.1-2.6-1-1.1-1.5-2.4-1.2-2.9.3-.5-.1-1.5-.9-2.2-.8-.7-1.5-1.7-1.5-2.2 0-.6.7-.4 1.6.3 1.4 1.1 1.8 1.1 2.8-.2.6-.8 2.1-1.4 3.3-1.3 1.2.1 2.1-.2 1.8-.6-.7-1.1-4.6-.5-5.5 1-.7 1.1-1.1 1-2.4-.2-1.7-1.7-1.2-3 .9-2.2 1.8.7 2.6-.9 1.3-2.6-.8-1.2-.9-1.2-.4.2.3 1 .1 1.8-.4 1.8-1.1 0-1.3-2.3-.3-3.4.4-.3.8-1.6 1-2.7.2-1.1.9-3 1.5-4.2.7-1.2 1.1-2.5 1-3-.1-.4.2-.7.6-.7.4 0 .8-1.8.7-3.9-.1-3.5.1-3.8 1.7-3 1 .5 2.4 2.2 3.2 3.7.9 1.5 1.5 2.2 1.6 1.7 0-.6-.7-2.1-1.6-3.3-.8-1.2-1.2-2.2-.7-2.2.4 0 1.7-1.3 2.7-2.8l2-2.7-2.3 1.9c-1.2 1.1-2.8 2.1-3.6 2.2-2 .3-3.6-1.9-2.6-3.5.7-1.1 1.3-1.1 2.7-.1 1.3.7 1.4 1 .3.7-.9-.3-1.6.1-1.6.9 0 1.2.3 1.2 2.1 0 1.2-.8 1.9-2 1.7-2.8-.2-.7-.4-1.8-.5-2.4-.1-.7-.8-2-1.6-2.9-1.4-1.6-1.3-1.7 1-1 1.4.4 2.2.4 1.8 0-.4-.5-.2-1.5.4-2.4 1-1.3 1-1.4-.2-.4-.8.7-2 1.3-2.7 1.3-1.9 0-1.6-1.8.4-2.2.9-.2 1.7-1.3 1.8-2.5.1-1.2-.2-2-.7-1.7-.4.3-.8 0-.8-.5 0-.8-.7-.7-1.9.1-1.1.7-1.7 1.6-1.4 2.1.3.5.9.3 1.4-.4.8-1.2 1.1-1.1 1.9.1.7 1.1.5 1.7-.8 2.2-2.5 1-3.4.9-2.7-.1.3-.5.2-1.2-.2-1.4-.5-.3-.8-2.2-.8-4.4 0-3.5.3-3.8 2.8-3.7 1.5.1 2.5-.2 2.1-.5-.3-.3-1.8-.6-3.2-.6-1.9-.1-2.8-.7-3-2-.3-1.7-.1-1.7.7-.5.9 1.2 1 1.1.8-.7-.2-1.2-.7-2.6-1.2-3-.4-.5-.5-.2 0 .6.5.9.3 1.2-.6.9-.8-.3-1.3-1.2-1.3-2 .2-3-5-1.4-7.3 2.3-1.3 1.8-2.6 3.8-3.1 4.4-.4.5-1.5 2-2.4 3.3-1.3 1.9-1.6 2-2.2.7-.4-1-.2-1.4.6-.9.7.5.8.3.3-.6-.6-.9-.4-1.1.4-.5 1 .6 1.1.3.2-1.4-.7-1.1-1.7-2.1-2.4-2-.9 0-.9.2.1.6 2.2.9 1.3 2.5-1 1.8-1.5-.4-1.9-.3-1 .3.7.5 1 1.7.6 2.8-.5 1.6-.4 1.7.6.4 1-1.3 1.1-1.3.7.2-.3.9-.1 1.9.6 2.2.7.3 0 .3-1.4 0-1.5-.3-3-.1-3.4.6-.4.7-.1 1 .8.8.9-.2 1.6.1 1.6.7 0 .5-.7.9-1.6.7-.8-.2-1.2.1-.8.7 1 1.7-.1 1.3-1.6-.6-1.2-1.4-1.2-1.6 0-.8 1 .5 1.2.4.7-.3-1.1-1.7-2.9-1.5-2.2.3.3.8.9 2.3 1.2 3.2.5 1.5.4 1.6-.5.3-.6-.8-1.6-1.5-2.3-1.5-.7 0-1.5-1.1-2-2.5l-.7-2.5.2 2.5c.2 3.8-1.1 5.4-3.1 3.8-1.2-1-1.4-1-.8-.1.7 1.3-.4 1.7-3.4 1.3-.8-.1-1.2.1-.9.5 1.2 1.1 6.9 1.5 6.9.4 0-.6.5-.7 1.2-.3.7.5.8.2.3-.7-.5-.8-.5-1.1 0-.7.4.4 1.3.3 2-.2.8-.7 1.2-.5 1.2.5 0 .7-.3 1.3-.6 1.2-.3-.1-1.6.4-2.9 1.1-1.2.7-2.6 1.1-3 .8-.5-.3-1.6.8-2.6 2.5-.9 1.6-2.2 2.9-2.7 2.9-.6 0-.7.5-.4 1 .4.6 1.1.8 1.6.5.5-.4.6.2.2 1.2-.6 1.6-.5 1.6 1 .4 1.1-.9 1.7-1 1.7-.2 0 1-1.4 1.5-3.4 1.2-.4-.1-1.4.4-2.2 1-1 .8-1.4.8-1.4 0 0-.6.6-1.1 1.3-1.1.8 0 .7-.3-.3-1-2-1.2-3.1.8-1.9 3.4.6 1.3.1 1-1.1-.7-1.2-1.5-2.6-2.4-3.1-2.1-.6.3-.2 1.2.8 2.1 1.7 1.3 1.6 1.3-.4.4-1.2-.6-2.3-.8-2.6-.3-.2.4-.2.2-.1-.5.2-.6-.5-1.7-1.3-2.5-1.4-1.1-1.6-1.1-1.1.4.9 2.1-.2 3.1-1.9 1.7-1-.9-1.3-.8-1.3.2 0 1.2-.2 1.2-.9 0-.7-1-1.3-1.1-3.1-.1-1.8.9-2.4.9-3 0-.5-.8-1-.9-1.4-.2-.3.6-1.5 1-2.6.9-1-.1-1.6-.5-1.4-.9.3-.4-.2-.8-1-.8-2 0-2-1.4 0-3.1 1.4-1.1 1.5-1 1.2.6-.2 1.3.4 1.9 1.9 2 1.2.1 2-.2 1.7-.7-.3-.4-.1-.8.4-.8.6 0 1.3.7 1.6 1.6.4.9.9 1.4 1.3 1.1.3-.4 0-1.3-.7-2.2-.8-1-.9-1.5-.1-1.5.6 0 1.1.5 1.1 1.1 0 .5.5.7 1.2.3.7-.5.8-.3.3.7-.8 1.2-.6 1.2.8 0 1.4-1.1 1.7-1.1 1.7 0s.2 1.1 1-.1c.9-1.3 1-1.3 1 0s.1 1.3 1 0c.5-.8 1.4-1.6 2-1.6.5-.1 1.4-.2 1.8-.3.4 0 .8-1.1.9-2.4.2-2.1.1-2.1-1-.2-1.8 3-3.8 3-3.3 0 .3-1.4 0-2.5-.6-2.5-.5 0-.8.6-.5 1.3 1.2 3.1-2.1 5.2-5.5 3.5-1.1-.5-2.6-.4-3.9.2-1.7.9-2.3.8-3.3-.6-.9-1.2-1.5-1.4-2-.5-.4.6-1.2.8-1.8.5-.6-.4-.8-.2-.5.3.8 1.2-1.7 3.6-2.6 2.6-.4-.3-.7-.1-.7.5s-1 .9-2.2.7c-1.4-.3-3.1.4-4.6 1.7-1.4 1.4-2.6 1.9-3 1.3-.4-.6-1.6-.2-2.9 1-2 1.9-2 2.1-.3 2.1 1 0 1.6-.4 1.4-.8-.2-.4.5-.5 1.6-.3s2 0 2-.5c0-.4 1.1-.7 2.3-.6 1.4.2 2.4-.2 2.4-1 0-.6-.7-1-1.6-.7-1.4.4-1.4.3-.1-.5 1-.8 1.9-.7 2.9.1 1.2 1 1.3.9.6-.3-.4-.8-.5-1.2 0-.8.4.4 1.7.3 2.7-.3 1.4-.8 2.3-.8 3.1 0 1 1-.1 1.6-2.5 1.2-.4 0-1.7.7-2.8 1.7-2 1.7-2.4 1.8-5.6 2.1-.9 0-1.2.6-.8 1.3.4.6.3.8-.4.4-.6-.3-1.4-.2-1.7.4-.5.8-1.2.7-2.3-.2-1.4-1.1-1.5-1-.9.5 1 2.7-.2 4.1-2.1 2.5-1.3-1.1-1.5-1-.9.5.5 1.3 0 2.1-1.8 2.9-1.3.6-2.2 1.5-1.9 2 .3.5 0 .7-.8.6-.7-.2-1.2.2-1.1.9.2.9-.4 1-2.2.3-1.4-.5-2.5-.6-2.5-.2 0 .4-.7-.2-1.5-1.2-.8-1.1-1.5-1.5-1.5-.9 0 .7.5 1.5 1 1.8 1.2.7.4 2.5-1.1 2.5-.6 0-.7-.5-.4-1 .3-.6.1-1-.5-1-.7 0-.9.7-.6 1.5.3.8.8 2.1 1.1 2.8.3.8-.3 1.3-1.5 1.4-1.1.1-2-.2-2-.8 0-.5.5-.9 1.1-.9.5 0 .7-.5.3-1.1-.4-.8-1.1-.3-2 1.2-1.1 2.1-1 2.6.6 4.1 2.4 2.3 3.7 2.3 1.9.1-1.2-1.4-1.2-1.6 0-.8.8.5 1.2.4.8-.1-.7-1.2 3.8-1.2 4.9-.1.5.4.2.6-.6.2-.9-.3-2.1.4-2.9 1.6-1.1 1.9-1.1 2.1.3 1.6 2.7-1.1 1.8.2-1.4 1.8-3.5 1.8-4.2 4.2-.7 2.5 1.9-.9 2-.9.6.2-.9.7-1.4 1.9-1.1 2.6.2.7-.8.1-2.3-1.4-2.4-2.4-2.7-2.5-3.8-.9-1.2 1.5-1.5 1.5-4-.5-1.5-1.2-2.7-2.6-2.7-3.3 0-.6.5-.4 1.3.4.6.8 1.9 2.1 2.8 2.7 1.5 1.1 1.7.9 1.5-1.3-.1-2.4-1.6-3.7-1.6-1.4 0 .7-1.2 0-2.6-1.4-1.5-1.5-3-2.4-3.5-2.2-.4.3-1.1 0-1.5-.6-.5-.8-.3-.9.6-.4.8.5 1.1.3.8-.6-.3-.8-1.3-1.3-2.3-1.1-1 .2-1.5-.2-1.3-.9.2-.7 1.4-1.3 2.5-1.4 1.5-.1 2 .3 1.6 1.4-.3 1-.1 1.2.4.6 1.4-1.7 3.6-1.7 3-.1-.3.8.1 2 .8 2.6.8.7 1.2 1.7.9 2.2-.4.6 0 .7 1.2.1 2.8-1.4 4.7-1 5 1 .1.9-.2 1.5-.7 1.1-.5-.3-.9 0-.9.6 0 1.8 3.3.7 3.6-1.3.1-.9-.2-1.7-.7-1.7-.5 0-1.9-1.6-3-3.5-1.2-2-3.1-4-4.3-4.6-2-.9-1.9-.8.2.7 2.3 1.7 3 4.4 1.1 4.4-.5 0-.8-.4-.4-.9.7-1.2-2.9-3.3-4-2.3-.5.4-.5-.1-.2-1.1.4-1.1.3-1.6-.4-1.2-.5.4-1.7.1-2.6-.7-1.2-.9-1.5-.9-.9-.1.4.7.2 1.3-.3 1.3-.6 0-1.1-.5-1.1-1.1 0-.5-.5-.7-1-.4-.6.4-.7 1.2-.4 1.8.4.7-.3.2-1.4-1-1.3-1.3-1.9-2.8-1.5-3.8.4-1.2.8-1.3 1.3-.4.6.8 1.4.6 3.1-1.1l2.4-2.2-2.3 1.1c-1.2.7-2.7.9-3.2.6-.5-.3-1.1-.1-1.4.4-.8 1.2-4.6.2-4.3-1.1.1-.6-.6-1.2-1.6-1.3-2.2-.4-3.6-1.5-1.8-1.5.7 0 1-.4.6-1-.3-.5-1.3-.7-2.3-.4-1.3.5-1.4.4-.3-.4.7-.5 1.1-1.4.7-2-.3-.6-.2-1.3.4-1.7.5-.3 1.1-.1 1.1.4.3 2.1.4 2.6 1.2 3.9.5.7 1.3.9 1.9.6.7-.5.8-.2.3.6-.5.9-.4 1.1.4.6.6-.4 1-.4.9.1-.2.4 0 .9.5 1.1 1.7.5 2.7.1 2.7-1.4 0-.8.4-1.3.9-.9.5.3 1.2.1 1.5-.4.4-.5-.1-.8-1-.7-.8.1-1.9.8-2.3 1.5-.6.9-1.9 0-4.5-3.1-2.1-2.4-4.3-4.4-4.9-4.4-.7-.1-1.8-.2-2.4-.3-.7 0-1.3-.6-1.3-1.2s.7-.8 1.8-.4c1.4.5 1.5.4.5-.6s-1.6-1-2.5-.1c-.9.9-.5 1.7 1.5 3.6 2.6 2.4 3.7 4.3 1.8 3.2-.5-.4-1.2 0-1.4.6-.4 1-.6 1-.6 0-.1-.7-.6-1-1.3-.6-.7.4-.8.3-.4-.5.4-.6 1.3-.8 1.9-.5.9.5.9.3 0-.6-1-1-1.5-1.1-2.7-.1-1 .8-1.6.9-2.1.1-.3-.6-1-.8-1.5-.5-.4.3-1.3-.2-1.9-.9-.7-.8-2.3-1.3-3.7-1.1-1.3.1-2.7-.1-3-.6-.2-.4-1.1-.6-1.8-.3-1.5.6-4-2.1-3.2-3.4.3-.5-.1-1.8-.9-2.8-1.3-1.6-1.4-1.7-.9-.2.9 2.6-.5 2.2-1.6-.5l-.9-2.2v2.3c-.1 2.3-.1 2.3-2.5.5-1.3-1-2.2-2.1-2-2.4.2-.3-.4-.6-1.3-.6-1.2 0-.9.6 1 2.2 3.6 2.8 3.4 4.2-.2 1.6-2.2-1.6-3.1-1.8-3.5-.9-.3.9-.9.7-2-.6-.9-1.1-1.6-1.5-1.6-1 0 .6.5 1.5 1.2 2.2.9.9.9 1.2 0 1.2-.6 0-1.9-1.1-2.8-2.5-.9-1.4-2.1-2.2-2.7-1.8-.7.4-.8 0-.3-1.3.5-1.4.4-1.6-.5-.7-1.2 1.2-.3 3.7 1.1 2.8.4-.3 1 .2 1.4 1 .8 2.1-1 1.9-3.4-.5-1.1-1.1-2.2-1.5-2.5-1-.4.6-.2 1 .4 1 .5 0 .8.8.6 1.9-.2 1.2.5 2.2 2.1 3 1.3.6 2.4 1.5 2.4 2 0 1.6-2.8 2-4 .6-1.3-1.5-3-1.1-3 .6 0 .6.6.7 1.3.3.9-.5.9-.4 0 .6-1.8 1.9-3 .3-1.5-2 .6-1.1.8-2.1.3-2.5-.5-.3-1.2.4-1.6 1.5-.3 1.1-1.1 2-1.6 2-.6 0-.7-.5-.4-1 .3-.6.1-1-.4-1-.6 0-1.1-.5-1.1-1.1 0-.8.6-.7 1.7.2 1.5 1.2 1.6 1.2 1-.3-.3-1-.3-1.7.1-1.7 2 .3 2.5-.2 1.2-1.2-1.2-.9-1.2-1 .3-.5 1.2.4 1.7.2 1.4-.6-.2-.7-.1-2 .4-2.9.4-.8.4-2.1 0-2.8-.6-1-1-.9-1.4.4-.5 1-.3 1.4.5.9.7-.5.8-.3.3.6-.6 1-1.2.9-2.4-.6-.9-1-2.3-2-3.1-2.2-.8-.2-1.8-.9-2.2-1.5-.5-.8-.8-.7-.8.3-.1 1.1-.4.9-1.3-.5-.7-1.1-1.9-2.1-2.7-2.3-.8-.1-3.2-2.2-5.3-4.5-2-2.3-4.4-4.9-5.2-5.8-.8-.9-1.5-1.9-1.5-2.4s-.8-1.7-1.7-2.8c-1-1.1-1.3-1.7-.7-1.4.7.4 1.4 0 1.7-.8.4-.9.1-1.2-.9-.8-.8.3-2 .1-2.7-.5-1.7-1.4-4.7-1.1-4.7.5zm220.5 23.2c-.3.5.2 1.7 1.1 2.5.8.9 1.3 1.6.9 1.6-.3 0-.1.9.5 2 1 1.9.9 1.9-1.5.8-1.9-.8-2.2-1.4-1.3-2 .8-.5.9-1.1.3-1.6-1.4-1-1.8-4.2-.5-4.2.6 0 .9.4.5.9zM81 82.2c0 .7.5.6 1.3-.1 1.6-1.3 2.7-.5 2.7 2.1 0 2.4-1 2.3-4.3-.7-3-2.9-3.4-3.7-1.2-2.9.8.4 1.5 1.1 1.5 1.6zm11.9.7c1.1 1.1 2.1 1.5 2.3.9.2-.6 1.6-1.2 3.1-1.3 2.2-.3 2.6 0 1.8.9-.7.8-.7 1.6-.1 2.2.6.6.2 1-1.3 1.1-1.2 0-1.6-.1-.9-.4.6-.3 1-.9.7-1.3-.3-.5-1.2-.7-2-.4-.8.4-1.2 1.1-.8 1.8.4.6-.1.5-1-.3-1.4-1.1-2-1.1-3.4 0-1.3 1.1-1.7 1.1-2 .1-.3-.6-.9-1.2-1.4-1.2-.6 0-.7.4-.4 1 .3.5.1 1-.4 1-1.5 0-.7-4 1-5.1 2-1.3 2.7-1.1 4.8 1zm-24.4 1c-.3.5-.1 1.2.5 1.6 1.3.8 1.3 3.5 0 3.5-.5 0-.6-.7-.3-1.7.4-1 .2-1.4-.4-1-.7.4-1 0-.8-1 .5-2.4.4-2.3 1.1-2.3.3 0 .3.4-.1.9zm158.1 3.6c-.1.8-.6 1.8-1.1 2.2-.4.4-.5.2-.1-.5s.2-1.2-.6-1.2c-.9 0-.9-.3.2-1 1.9-1.2 1.9-1.3 1.6.5zM66 87.4c0 .2-.7.7-1.6 1-.8.3-1.2.2-.9-.4.6-1 2.5-1.4 2.5-.6zm156.4 1.1c-.4.8-.8 1.5-1 1.5-.2 0-.4-.7-.4-1.5s.4-1.5 1-1.5c.5 0 .7.7.4 1.5zm10.1-.5c.3.5.1 1-.4 1-.6 0-1.1-.5-1.1-1 0-.6.2-1 .4-1 .3 0 .8.4 1.1 1zM73 90c0 .5-.4 1-1 1-.5 0-1-.5-1-1 0-.6.5-1 1-1 .6 0 1 .4 1 1zm6-.6c0 .3-.4.8-1 1.1-.5.3-1 .1-1-.4 0-.6.5-1.1 1-1.1.6 0 1 .2 1 .4zm-12 2.4c0 .4-1 .9-2.2.9-1.8.2-2 0-.8-.7 1.8-1.2 3-1.3 3-.2zm-6.4 3.7c.1.8-.1 1.3-.6 1-.5-.3-1.1.1-1.3.7-.3.8-.6.6-.6-.5-.1-.9.4-1.7 1-1.7.5 0 .7-.6.3-1.3-.4-.6-.3-.8.1-.4.5.4 1 1.4 1.1 2.2zm-5.2.7c-1.7 1.9-1.7 2.1-.1 1.5.9-.4 1.7-.2 1.7.3 0 1.1-2.3 1.3-3.3.3-.7-.6 2-4.3 3.1-4.3.3 0-.3 1-1.4 2.2zm7.5 3.1c.8 1 .7 1.4-.2 1.4-.8 0-1.4-.6-1.4-1.4 0-.7.1-1.3.2-1.3.2 0 .8.6 1.4 1.3zm-3.9.7c0 .5-.5 1-1.1 1-.5 0-.7-.5-.4-1 .3-.6.8-1 1.1-1 .2 0 .4.4.4 1zm180-.4c0 .8-1.9 1.3-2.4.6-.3-.5.1-.9.9-.9s1.5.2 1.5.3zm5-.2c0 .2-.8 1-1.7 1.7-1.6 1.3-1.7 1.2-.4-.4 1.3-1.6 2.1-2.1 2.1-1.3zm.6 4.1c-.1.8-.5 1.7-.8 2.1-.5.4-.4-1.6.1-3.4.3-.9.9.1.7 1.3zM61 103.4c0 .3-.4.8-1 1.1-.5.3-1 .1-1-.4 0-.6.5-1.1 1-1.1.6 0 1 .2 1 .4zm100.3 1.8c-.5 2.2-.5 2.2.9.4 1.2-1.5 1.7-1.6 2.3-.6.5.9.4 1.1-.3.6-1.1-.7-1.7.6-1.3 2.7.1.5-.4.5-1.1 0-.7-.4-1.6-.8-2-.9-.5-.1-1.1-.2-1.5-.3-.5-.1 2.6-4.1 3.3-4.1.1 0 0 1-.3 2.2zm-103.9 2.4c.6 1.5.4 1.5-1.1.3-1-.7-2-1.5-2.2-1.6-.2-.2.3-.3 1.1-.3.9 0 1.9.7 2.2 1.6zm187.5 2.8c-.3.3-1.1-.5-1.8-1.7-1.3-2.1-1.2-2.1.5-.5 1 1 1.6 2 1.3 2.2zm-98.1-1.2c-.2.7.5 1.3 1.4 1.3 2.2 0 3.3 1.2 1.1 1.2-2.3 0-4.5-1.6-3.7-2.8.8-1.3 1.4-1.1 1.2.3zM145 120c0 .5-.5 1-1.1 1-.5 0-.7-.5-.4-1 .3-.6.8-1 1.1-1 .2 0 .4.4.4 1zm7.2 2.6c-.8 1.4-.9 1.3-.9-1 0-1.8.3-2.4.9-1.8.7.7.7 1.6 0 2.8zm-4.1-.7c-2.1.6-2.2.8-.7 2 .9.7 1.6 1.8 1.6 2.3 0 .6-.9 0-1.9-1.3-2.2-2.8-1.9-3.9 1.2-3.8 2.1.1 2.1.1-.2.8zm6.9 2.1c0 .5-.4 1-1 1-.5 0-1-.5-1-1 0-.6.5-1 1-1 .6 0 1 .4 1 1zm-8.3 3.5c0 .8-.4 1.2-.9.9-.5-.3-.6-1-.3-1.5.9-1.3 1.2-1.1 1.2.6zm5.7-.1c-.3.8-1.2 1.7-2 2-1.8.7-1.8.1.2-1.8 1.9-2 2.5-2 1.8-.2zm-76 4.4c.3.5-.1.9-.9.9s-1.2-.4-.9-.9c.3-.4.7-.8.9-.8.2 0 .6.4.9.8zm72.8 1c.4 1.3 0 1.8-1.3 1.7-1-.1-2.2-.5-2.6-1-.5-.4-.2-.5.5-.1s1.5.1 1.8-.8c.8-2 1.1-2 1.6.2zm5.8-.8c0 .5-.4 1-1 1-.5 0-1-.5-1-1 0-.6.5-1 1-1 .6 0 1 .4 1 1zm-78.2 4.5c-.3.3-.9-.2-1.2-1.2-.6-1.4-.5-1.5.5-.6.7.7 1 1.5.7 1.8zM153 135c0 .5-.5 1-1.1 1-.5 0-.7-.5-.4-1 .3-.6.8-1 1.1-1 .2 0 .4.4.4 1zm27.6 2.5c.1.8-.1 1.7-.5 1.9-.4.3-.7-.6-.7-1.9 0-2.5.8-2.5 1.2 0zm-94.7.4c1 .7.7.9-1.2.8-1.4-.1-2.3-.5-2-1 .6-.9 1.5-.9 3.2.2zm66.8-.3c-.3.3-1.2.4-1.9.1-.8-.3-.5-.6.6-.6 1.1-.1 1.7.2 1.3.5zm-75.9 3c.1.1-.5.4-1.5.6-1.3.4-1.9 0-1.9-1.3 0-1.4.3-1.6 1.6-.6.8.6 1.6 1.2 1.8 1.3zm3.9-2c-.3.3-1.2.4-1.9.1-.8-.3-.5-.6.6-.6 1.1-.1 1.7.2 1.3.5zm70.3.8c0 .2-.7.7-1.6 1-.8.3-1.2.2-.9-.4.6-1 2.5-1.4 2.5-.6zm4.5.6c.3.6-.1.7-.9.4-1.8-.7-2.1-1.4-.7-1.4.6 0 1.3.4 1.6 1zm19.7.8c-.7.2-.9.9-.5 1.5.3.7.2.8-.2.4-1.6-1.4-1.4-3.6.3-2.9 1 .4 1.2.7.4 1zm7.8-.8c0 .5-.5 1-1.1 1-.5 0-.7-.5-.4-1 .3-.6.8-1 1.1-1 .2 0 .4.4.4 1zm-4.5 2.1c-.4.5-1.2.9-1.8.8-.9 0-.8-.2.1-.6.6-.2.9-1 .6-1.5-.4-.7-.2-.8.5-.4.6.4.9 1.2.6 1.7zm-109-.1c.3.6-.1.7-.9.4-1.8-.7-2.1-1.4-.7-1.4.6 0 1.3.4 1.6 1zm12.1 1.2c0 1-.1 1.8-.2 1.8 0 0-.8-.8-1.7-1.8-1.5-1.6-1.5-1.8.1-1.8 1 0 1.8.8 1.8 1.8zm72.8-1.4c.2.4 0 1.4-.6 2.2-.8 1.2-.9 1.1-.4-.4.5-1.3.2-1.7-.9-1.2-.8.3-1.5.1-1.5-.4 0-1.2 2.7-1.3 3.4-.2zm-2.9 3.1c-.6.5-2.5-1-2.5-2 0-.5.6-.4 1.4.3.8.7 1.2 1.5 1.1 1.7zm18.9-1.4c-.4.8-1.1 1.2-1.6.9-.6-.4-.5-1 .3-1.5 1.9-1.2 1.9-1.1 1.3.6zm10 0c-1 .8-2.3 1.5-2.8 1.5-.6 0-.1-.7 1-1.5 1-.8 2.3-1.5 2.8-1.5.6 0 .1.7-1 1.5zm-96 1.1c.3.8.2 1.2-.4.9-.6-.3-1-1-1-1.6 0-1.4.7-1.1 1.4.7zm68 4c2 .3 2.1-1.3.1-1.9-1.1-.3-1-.4.2-.3 1.2.1 1.7.9 1.6 2.4-.2 1.4.2 2 1.1 1.6.7-.3 1.9.3 2.7 1.3 1.3 1.6 1.2 1.7-.4.4-.9-.8-2-1.1-2.3-.8-.3.3.6 1.3 2 2.2 1.5 1 2.5 2.5 2.4 3.4-.2.9.2 1.5.9 1.4.8-.2 1 .4.6 1.4-.4 1.1-.3 1.4.5.9 1.2-.7 1.6.5 1.3 3.3-.2.7.2 1 .7.7.5-.3 2.4 1.1 4.2 3.2 1.7 2 3.9 4 4.8 4.3 1.3.5 1.2.7-.6 1.1-1.4.4-2 .2-1.5-.4.4-.7.1-.8-.7-.3-.9.6-1.1.4-.5-.5.8-1.4-.6-.8-3.3 1.3-1.4 1.1.1 3.7 2.2 3.7.6 0 .3-.7-.7-1.4-1.3-1-1.5-1.6-.6-2.1.6-.4 1.4-.3 1.8.3.3.5 1.8.8 3.3.7 1.6-.2 3.8.5 5.1 1.6 1.4 1 2.7 1.5 3.1 1.2.3-.3.6-.1.6.5s-.9 1-1.9.9c-1.1 0-1.7-.5-1.4-1.1.4-.5.1-.6-.7-.1-.9.6-1.1.4-.5-.5.5-.9.4-1.1-.3-.6-.7.4-1.2.2-1.2-.6 0-.7-.7-.2-1.6 1-.8 1.2-2 2.2-2.6 2.2-.6 0-.3-.9.7-2s1.6-2 1.3-2c-.3 0-1.3.9-2.2 1.9-1.7 1.9-1.7 2 .4 3.1 1.8 1 2.1.9 1.5-.1-.6-.9-.3-1.1.8-.6 1.2.4 1.4.2 1-1.1-.6-1.5-.5-1.5 1.1-.3 1.7 1.4 1.6 1.6-.5 3.1-1.6 1.3-1.9 1.9-.9 2.5.8.5 1.1.4.7-.2-.4-.6 0-1.3.7-1.6 2.3-.9 2.4 1.6.2 3.6-1.4 1.3-1 1.2 1.2-.3 1.8-1.2 3.6-1.9 4-1.6.3.4 0 1.1-.8 1.6s-1.1 1.2-.7 1.7c1 .9 2.8-1.8 2.3-3.4-.7-1.7 2.6-2.6 4.1-1 1.2 1.2 1.2 1.4-.1 1.4-.8 0-1.2-.5-.9-1.1.3-.6.2-.7-.2-.3-1.1 1-1.6 3.9-.5 3.2.4-.3 1.1.2 1.4 1.1.3.8 1 1.2 1.6.9.5-.3 1-.4 1-.1 0 .2.3 1.3.7 2.3.6 1.5.4 1.6-.9.5-1.3-1-1.7-1-2.1.2-.4 1-.1 1.3.8 1 1.1-.4 1.3.1.9 2.2-.3 1.6-.7 3-.9 3.2-.6.6-2.5-.8-2.5-1.9 0-.6.5-.7 1-.4.6.3 1 .1 1-.4 0-.6-.4-1.1-.9-1.1-1.7 0-2.3 2-1.1 3.5.9 1 .7 1.6-.6 2.3-2.2 1.2-1 3.2 1.6 2.7 1.1-.2 2 .1 2 .7 0 .5-.7.8-1.5.5-.8-.4-1.7-.2-2 .4-.4.5-1 .7-1.4.4-.5-.2-1.7.2-2.7 1-1.8 1.5-1.8 1.5.1.9 1.1-.3 1.6-.2 1 .3-.5.4-1 1.4-1.1 2-.2 2.7-.4 3.1-2.1 3.7-1.5.6-1.5.4.2-1.4 2.2-2.4 1.3-3.9-1-1.6-1.8 1.7-3 2.2-2.1.7.3-.5-.1-1.2-1-1.5-.8-.3-1.2-1.1-.9-1.6.4-.7-.5-.9-2.7-.6-1.8.3-2.7.3-2 0 .6-.3.9-1.1.6-1.6-.4-.6-.3-.8.2-.5.5.3 1-.3 1-1.3s-.4-1.6-.8-1.4c-.4.3-.8.1-.8-.5 0-.5-.9-.9-2-.8-1.1.1-2 .5-2 1s.7.7 1.5.4c2.2-.9 2.9 1.2 1.1 3.2-1.9 2.1-4.6 2.4-3.9.4.3-.8 1.2-1.2 1.9-.9.7.3 1.6.1 1.9-.4.3-.4-.6-.7-2-.5-1.4.1-2.8-.2-3.1-.6-.3-.5 0-.9.5-.9.6 0 1.1-.8 1.1-1.7 0-1.5-.2-1.4-1.5.3-1.5 1.9-1.5 1.9-3 0-1.3-1.7-1.5-1.8-1.5-.3 0 .9-.5 1.7-1.1 1.7-.5 0-.7-.6-.3-1.3.4-.6.3-.8-.1-.4-1.3 1.1-1.5 3.8-.3 3.1.6-.4 1.7.1 2.5 1.1.7 1.1 1.3 1.4 1.3.9 0-.6-.5-1.5-1.2-2.2-1.3-1.3-.8-1.5 1.6-.6.9.3 1.3 1.1.9 1.7-.4.6-.1.7.8.3.8-.4.5 0-.6.9-1.8 1.4-2.1 1.4-3.1 0-1.2-1.6-2.9-2.1-2-.6.7 1.1-1.8 3.3-2.8 2.4-1.1-1.2-4.8-1.4-4.1-.3.4.6.3 1-.2.9-1.8-.3-3.4.2-2.9.9.2.4.1 1.4-.3 2.1-.6 1-1 .9-1.4-.3-.3-.8-.2-1.8.3-2.1.6-.4 1-1.1 1-1.6 0-.6-.6-.7-1.2-.2-1.8 1.1-3.9 1.3-3.3.3.3-.5-1.3-.7-3.4-.5-3.3.2-3.9 0-3.4-1.4.5-1.3.3-1.4-.7-.4-1.1 1-1.7 1-2.9 0s-1.4-.9-.9.5c.7 1.6-1.3 2-2.8.5-.4-.3-1.5-.2-2.6.4-1.5.8-2.6.6-4.5-.7-2.2-1.4-2.5-1.4-2-.1.7 1.9-1.4 1.7-3.9-.3-1.6-1.3-1.7-1.3-1.2.2.6 1.3.1 1.5-2.3 1.1-1.8-.2-2.9 0-2.9.7s-.8.9-2.2.4l-2.3-.7 2 2.4c1.9 2.2 1.9 2.3.1.9-1.8-1.4-1.9-1.3-1.3.2.4 1.2.2 1.5-.8 1.1-.8-.3-1.3-.9-1-1.3.3-.5.1-1.1-.5-1.5-.5-.3-1-.4-1-.1 0 .2-.3 1.1-.6 2-.4 1.1 0 1.6 1.2 1.7 1.8 0 1.7.1-.1.9-2.6 1.1-4.4 1.2-2.6.1.9-.6 1-1.1.2-1.5-.6-.4-1.1-1.2-1.1-1.7 0-.6.5-.7 1-.4.6.3 1 .3 1 0 0-1-2.4-3-4-3.3-.8-.2-1.6-.8-1.8-1.3-.2-.5-.8-.9-1.3-.9-.6 0-.7.6-.3 1.2.6 1 .4 1-.7.2-.8-.6-2.1-1-3-.9-1.8.3-1.8-2 0-5.3 1.1-2.1.9-2.9-1.3-6.2-1.5-2.3-2.2-4.2-1.6-4.5.6-.4.8-1.1.5-1.6-.4-.5.1-.9 1-.9 1 0 1.3-.5.9-1.2-.4-.6.3-.4 1.7.5 2.9 2.1 4 2.2 3.3.3-.4-.9.3-1.3 2.3-1.3 1.5 0 2.2.2 1.5.4-1 .4-.8.9.5 2 1.4 1.2 1.2 1.2-.9-.1-2.6-1.5-2.7-1.5-2.3.4.2 1.1.7 2.5 1.1 3.1.4.7.2 1-.5.8-.7-.3-1.2-.8-1.1-1.3.3-1.6-2.4-2.5-3.9-1.3-1.2 1-1.4.9-.8-.8.7-1.9.7-1.9-.8-.1-1.2 1.6-1.2 2.2 0 4.7 1.6 3 3.5 4.6 3.5 3 0-.6-.4-1.1-.9-1.1-1.7 0-1.9-3.9-.3-5.2 1.3-1.1 1.5-1 .9.4-.4 1.1.4 2.9 2.1 5 1.6 1.9 2.1 3 1.2 2.6-.9-.3-2.4 0-3.5.8-1 .8-1.4 1.4-.8 1.4.7 0 1.5-.5 1.8-1 .4-.7 1.2-.7 2.5 0 3.9 2.1 4.2.3.5-3.1-2.6-2.6-3.5-5-1-2.9 1 .9 1.5.9 1.5.1 0-.6.5-1.1 1.1-1.1.6 0 .9.6.6 1.4-.3.8.1 2.2.8 3.3.8 1 1.5 1.3 1.5.7 0-.5-.5-1.5-1-2-.7-.7-.4-1.6 1-2.9 1.1-1 2-1.3 2-.7 0 .6-.4 1.3-1 1.7-.5.3-.7 1.2-.4 1.9.4 1 1.1.8 3-1.1 2.6-2.6 3.3-4.3.9-2.3-1.6 1.4-2 .3-.6-1.8 1.2-2 2.1-1.9 3.2.1.8 1.3.7 2.3-.3 3.4-.9 1.2-.9 1.5 0 .9.7-.4 1.2-.2 1.2.6 0 1 .2 1 .9-.1.5-.8.6-2.1.3-3-.5-1.3-.3-1.4 1-.3 1.3 1 1.7 1 2.1-.2.4-1.1.1-1.3-1.1-.9-1.5.6-1.5.4-.4-1 1.3-1.6 4.7-1.3 3.7.4-.3.4.4 1.3 1.5 1.9 1.3.7 2 .7 2 0 0-.5-.6-1-1.3-1-1.6 0-2-3.7-.5-4.6.6-.4.8-.2.4.4-.3.6-.1 1.4.5 1.8.7.4.9.3.6-.3-.4-.6 0-1.3.8-1.7.8-.3 1.7-.1 2 .5 1 1.4 2.7-.1 2.1-1.8-.4-1-.2-1.3.8-1 1 .4 1.3-.1 1-1.6-.2-1.2-.2-1.7.2-1 .6 1.3.9 1.1 4.9-2.5 1.3-1.2 1.8-.9 1.7.8 0 .3.9.6 2 .6 2 0 2-.1-.2-1.5-2.8-1.8-5.3-2.3-4.4-.9.5.7.2.8-.6.3-.9-.6-1.1-.4-.5.5.5.9.4 1.1-.3.6-.7-.4-1.2-.2-1.2.3 0 .6-.3 1-.7 1-2-.3-3.4.2-2.8 1 .6 1.1-3 3.4-5.7 3.6-1 .1-1.8-.2-1.8-.7 0-.4.8-.8 1.8-.8 1.4 0 1.5-.2.2-1-1.1-.7-1.9-.5-2.7.7-.9 1.2-1 1.9-.2 2.4.8.4.8.9.1 1.3-1.6.9-3.3-2.7-2.1-4.5.5-.7.9-1 .9-.5 0 .6.5.5 1.1-.1.6-.6 1.8-.9 2.7-.6 1.1.5 1.3.2.7-.8-.6-1-.5-1.1.4-.3s2 .4 4.2-1.7c1.9-1.7 3.6-2.6 4.6-2.2 1.2.5 1.4.3.8-.8-.7-1.1-.5-1.1 1 .1 1.7 1.4 1.8 1.3 1.2-.3-.4-1.1-.1-2 .8-2.3.8-.4 1.2-1.1.8-1.7-.3-.6-.1-.7.5-.3.6.4 1.8-.6 2.7-2.4.9-1.8 2-2.8 2.7-2.4.8.5.9.1.5-1-.4-1-.3-1.5.3-1.1.6.3 1.3-.1 1.6-.9.3-.9 1-1.3 1.5-1 .5.3.9.1.9-.5 0-.5-.3-1.1-.7-1.4-.5-.2-.2-.2.5-.1 1.5.4 1.6-.8.1-2.3-.8-.8-.8-1.3 0-1.8.6-.3 1.1-.3 1 .2-.3 1.9.2 2.7 1 1.4 1.4-2.2 3.3-.4 2.1 2-.6 1-.7 1.9-.3 1.9.4 0 .1.4-.7 1-.8.5-1.1 1.2-.7 1.7.5.4 1.2.1 1.7-.7.9-1.4 1.4-.7 1.1 1.2-.2 1.5.8.7 2.9-2.2 1.8-2.5 1.9-3.4 1-4.5-.7-.9-.8-1.5-.2-1.5.5 0 1.5.7 2.2 1.5 1 1.2 1 1.9.2 2.7-.7.7-1.2 1.6-1.2 2.2 0 .5.7.1 1.6-1 1.5-1.8 1.5-1.8.8.5-.4 1.7-.3 2.1.6 1.6.6-.4.9-1.7.6-2.9-.4-1.7-.1-2.2 1.5-2.3 2.4-.2 3.5-1 2.6-1.9-.4-.4-1.4-.1-2.4.7-1.4 1.2-1.6 1.2-.8 0 .6-1 .4-1.2-.5-.6s-1.1.4-.5-.5c.6-.9.4-1.1-.5-.5-.8.5-1.1.4-.6-.3.3-.6.2-1.4-.4-1.7-.6-.4-.9-.3-.8.2.2.4-.1.9-.7 1-.5.1-.9-1-.9-2.3.1-1.4-.3-2.3-1-2.1-.6.2-1.1 2-1 4 0 2.2-.5 3.8-1.3 4.1-1.1.5-1.1.1-.2-1.5.6-1.3.7-1.9.1-1.5-1.2.7-4.2-.3-4.2-1.5 0-.4.8-.5 1.8-.2 1.5.6 1.5.5.3-1s-1.2-1.7.1-1.2c.8.3 2.1-.1 2.8-.9 1-1.3.9-2.1-.4-4.3-1.7-2.8-1.7-2.8.8.1 1.3 1.6 3.2 3.1 4 3.2zm36.6-4.7c0 .6-.4 1.2-.8 1.5-.5.3-.9-.1-.9-.9s.4-1.5.9-1.5c.4 0 .8.4.8.9zm-113.9 2.4c-1 .9-1.1.8-.5-.6.3-1 .9-1.5 1.2-1.2.3.3 0 1.1-.7 1.8zm71.9 1.3c0 .8-.4 1.4-1 1.4-.5 0-.6-.7-.3-1.7.5-1.2.3-1.4-.7-.8-.9.5-1.1.4-.6-.4.9-1.4 2.6-.5 2.6 1.5zm26-1.6c0 .5-.4 1-1 1-.5 0-1-.5-1-1 0-.6.5-1 1-1 .6 0 1 .4 1 1zm12 1c-1.2 2.2-2.1 2.6-1.7.7.2-1 1.7-2.6 2.5-2.7.1 0-.2.9-.8 2zm-102.1.3c.8 1 .7 1.4-.2 1.4-.8 0-1.4-.6-1.4-1.4 0-.7.1-1.3.2-1.3.2 0 .8.6 1.4 1.3zm94.1-.3c0 .5-.8 1-1.7 1-1.5 0-1.6-.2-.3-1 1.9-1.2 2-1.2 2 0zm3.4.5c-.4.8-.8 1.5-1 1.5-.2 0-.4-.7-.4-1.5s.4-1.5 1-1.5c.5 0 .7.7.4 1.5zm72.9.9c.4 1 .1 1.3-.8.9-.8-.3-1.2-.9-.9-1.4.7-1.2 1.1-1.1 1.7.5zm-176.2 1.3c1.3 1.6 1.2 1.7-.3.4-1-.7-1.8-1.5-1.8-1.7 0-.8.8-.3 2.1 1.3zm101.5 1.8c.1.8-.3 1.8-.8 2.2-.7.3-.8.1-.4-.5.4-.7.1-1.2-.6-1.3-1 0-1-.2 0-.6.6-.2.9-1 .5-1.6-.3-.7-.2-.8.2-.4.5.4 1 1.4 1.1 2.2zM75 152c0 .5-.5 1-1.1 1-.5 0-.7-.5-.4-1 .3-.6.8-1 1.1-1 .2 0 .4.4.4 1zm3.5.9c.3.5.2 1.2-.3 1.5-.5.3-.9-.1-.9-.9 0-1.7.3-1.9 1.2-.6zm101.6 2.4c-1 .9-1.1.8-.5-.6.3-1 .9-1.5 1.2-1.2.3.3 0 1.1-.7 1.8zm-31.3 4.2c-.9 2-1.4 2.3-2.5 1.3-1.2-1-1.1-1.4.9-2.4 1.3-.8 2.4-1.3 2.5-1.4.2 0-.3 1.1-.9 2.5zm32.8 21.1c-2.2 1.9-3.1 2.2-3.7 1.3-.4-.7-.5-1.7-.2-2.2.3-.5.9-.4 1.2.2.5.8 1.3.7 2.7-.4 3.1-2.4 3.1-1.6 0 1.1zm8.4 1.4c.5.5 2.6.9 5.7 1.2.7.1.9.6.6 1.1-.4.6 0 .8.9.5 1.1-.5 1.4 0 1.3 1.6-.2 1.3.1 2.9.6 3.7.5.8.9 1 .9.5s.6-.4 1.3.1c1 .8 5.1 1 6 .3 1-.8 3.5-.6 3.3.4-.3 2.3-1.9 3.7-3.4 3.1-1.3-.5-1.3-.3.2 1.4 1 1.1 1.3 2.1.7 2.5-.5.4-1.3.1-1.8-.6-.7-1.2-.9-1.7-1.2-3.6-.2-1.4-6-.9-6.5.5-.4 1-1.1 1.1-2.5.3-2.1-1.1-3.7.1-2.6 1.9.3.6-.2 1.4-1.1 1.9-.9.5-1.4 1.2-1.2 1.7.5 1.2-3.1 1.5-3.8.3-.4-.6 0-1.4.7-1.9 1.1-.7 1.1-.9.1-.9-.7 0-1.5.6-1.8 1.3-.3.8-1.2 1.4-2.1 1.4-1.2 0-.9-.6 1-2.1 1.5-1.2 2.8-3 2.9-4.1.2-1.1.7-2.6 1.1-3.2.4-.7.3-2.1-.2-3.1-.6-1.1-.7-2.2-.4-2.6.3-.3.1-.6-.4-.6-.6 0-1.3.5-1.5 1.2-.3.8-.7.6-1.1-.5-.3-.9-.3-1.6.1-1.6 2.1.3 2.3-.3.8-2.6-1.7-2.6-1.7-2.6.6-1.3 1.3.7 2.5 1.5 2.8 1.8zm-99.9.7c1.3 1.7 1.3 1.7-.6.3-1.1-.8-2.2-1.6-2.4-1.7-.2-.2 0-.3.6-.3s1.7.8 2.4 1.7zm16.7 1.1c.2.7.8 1.2 1.3 1.2.6 0 .7-.6.3-1.3-.5-.8-.2-.7.9.2 1.7 1.3 1.7 1.5 0 3.3-1.4 1.6-1.8 1.6-2.5.4-1-1.7-3.6-1.5-4.9.5-.6 1-.9 1-.9.1 0-.6-.5-1.2-1.1-1.2-.5 0-.8.4-.4.9.3.5.1 1.2-.4 1.5-1.3.8-3.8-.3-4.5-1.9-.3-.9 0-1.2 1-.8.7.3 1.4 1 1.4 1.7 0 .6.5.4 1-.4s.7-2.3.4-3.3c-.5-1.4-.1-1.7 2-1.3 1.4.3 2.6.1 2.6-.4 0-1.2 3.3-.5 3.8.8zm14.2.2c0 .5-.2 1-.4 1-.3 0-.8-.5-1.1-1-.3-.6-.1-1 .4-1 .6 0 1.1.4 1.1 1zm98.5 4.9c-.8 1.7-1.9 3.3-2.5 3.6-.5.3-.1-1 1.1-2.9 2.5-4.3 3.6-4.8 1.4-.7zm-38.8 23.5c0 .8-.6 1.2-1.5.8-1.1-.4-1.3-.1-.7.8.6.9.4 1.1-.5.5-1-.6-.9-1.1.5-2.2 2.3-1.6 2.2-1.6 2.2.1zm-78.2 1.6c.3.5.1 1-.4 1-.6 0-1.1-.5-1.1-1 0-.6.2-1 .4-1 .3 0 .8.4 1.1 1zm-2.2 2c.3 1.1.1 1.8-.4 1.4-.5-.3-.9-1.2-.9-2 0-2 .7-1.7 1.3.6zm-1.6 4c-.1 1-.5 1.7-.9 1.4-.4-.3-.4-1.2-.1-2.1.5-1.2.3-1.4-.7-.8-.9.5-1.1.4-.6-.4 1-1.6 2.5-.4 2.3 1.9zm84.9-1.6c.8.8 1.1 1.7.6 2-.4.2-1.3-.4-2-1.5-1.4-2.2-.7-2.5 1.4-.5zm-83.6 6.1c0 .2-.8.1-1.7-.2-1.6-.6-1.7-.5-.3 1.2 1 1.3 1.1 1.6.2 1.1-.9-.5-1.3-.3-1.1.5.4 3.7-.1 4.2-2.2 2.3-1.2-1-2.3-1.8-2.5-1.7-.8.6-.1-1.3 1.2-3.2.8-1.1 1.4-1.4 1.4-.7s.5 1 1 .7c.6-.4.7-1.1.4-1.7-.4-.6.2-.6 1.5.1 1.1.7 2.1 1.4 2.1 1.6zm84.6 3c-.3 2-1.6 3.1-1.6 1.3 0-1.3.8-2.8 1.6-2.8.1 0 .1.7 0 1.5zm-84.8 2.7c0 .7.3 2.2.7 3.3.5 1.6.1 2.1-1.4 2.2-1.8.2-1.9-.1-1.1-1.7.6-1.1 1-2.3.9-2.7-.2-1.1 0-2.3.4-2.3.2 0 .4.6.5 1.2zm47.7.6c-.3.3-1.1 0-1.8-.7-.9-1-.8-1.1.6-.5 1 .3 1.5.9 1.2 1.2z"/><path d="M82.5 82.9c-.3.5-.2 1.2.3 1.5.5.3.9-.1.9-.9 0-1.7-.3-1.9-1.2-.6zM88.3 82.8c-.9.6-.7 1.1.7 1.9 1.5 1 2.1.9 3.1-.5.7-.9.9-1.4.5-1-.5.4-1.4.4-2-.2-.7-.5-1.7-.6-2.3-.2zM151.7 149.7c-.2.4 1 1.9 2.7 3.2l3.1 2.5-2.5-3c-1.4-1.6-2.6-3-2.6-3.2-.1-.2-.4 0-.7.5zM146.6 152.7c-.6 1.4-.5 1.5.5.6.7-.7 1-1.5.7-1.8-.3-.3-.9.2-1.2 1.2zM142.3 159.5c-.9 1.9-2 3.2-2.4 2.9-.4-.2-1.3.5-1.9 1.6-.6 1.1-1.4 1.9-1.8 1.6-.4-.2-1.8 1.3-3.1 3.5-1.4 2.1-2.9 3.5-3.5 3.2-.6-.3-.3.3.8 1.3 1.3 1.4 2 1.5 2.3.6.3-.6.9-1 1.4-.7.5.4.6-.1.2-1.1-.5-1.4-.3-1.5 1.6-.4 1.3.6 2.5.9 2.9.6.3-.3.1-.6-.4-.6-.6 0-1.9-.7-3-1.6-1.6-1.3-1.6-1.5-.1-1 .9.3 1.7.1 1.7-.4 0-.6.6-.9 1.3-.8.7.2 1.1-.7 1-2.3-.1-1.7.3-2.6 1.3-2.6s1.2.7.8 2c-.4 1.4-.3 1.7.6 1.2.6-.4.9-1.6.6-2.8-.3-1.1.2-3.3 1-4.9.8-1.5 1.2-2.8.9-2.8-.3 0-1.3 1.6-2.2 3.5zm-3.6 6.8c0 .7-.9 1.4-2 1.4-1.9.2-1.9.2-.1-1.2 1.1-.8 1.9-1.5 2-1.5 0 0 .1.6.1 1.3zM133 172c-.6 1.1-1.3 2-1.6 2-.2 0 0-.9.6-2s1.3-2 1.6-2c.2 0 0 .9-.6 2zM156.9 158.7c-.1.5-.1 1.2 0 1.7.1.4-.2 1.3-.7 2-1.2 1.5-2.3 4.6-1.6 4.6.2 0 .9-1.1 1.4-2.5.5-1.4 1.4-2.5 2-2.5.7 0 .8.6.1 1.8-1.4 2.6 2.1 2.6 3.8 0 .7-1.1.8-1.8.3-1.4-.5.3-1.4-.6-2-1.9-1.1-2.4-3.1-3.4-3.3-1.8zm2.5 1.9c.5 1.4.4 1.5-.9.4-1.7-1.4-1.9-2-.6-2 .5 0 1.2.7 1.5 1.6zm1.6 2.8c0 .3-.4.8-1 1.1-.5.3-1 .1-1-.4 0-.6.5-1.1 1-1.1.6 0 1 .2 1 .4zM149 163.8c0 .4 1 .9 2.2.9 1.8.2 2 0 .8-.7-1.8-1.2-3-1.3-3-.2zM147.3 166.5c0 .8.4 1.2.9.9.5-.3.6-1 .3-1.5-.9-1.3-1.2-1.1-1.2.6zM161.5 166.7c-.7 2-.6 2.3.6 2.3.5 0 .7-.5.4-1-.3-.6-.2-1 .4-1 .5 0 1.2.9 1.6 1.9.3 1.1 1.4 1.9 2.5 1.8 1.8-.1 1.8-.2 0-2.7-2.1-2.9-4.6-3.5-5.5-1.3zm4.5 1.3c.6 1.1.8 2 .6 2-.3 0-1-.9-1.6-2-.6-1.1-.8-2-.6-2 .3 0 1 .9 1.6 2z"/><path d="M155.5 167.9c-.3.5-.2 1.2.3 1.5.5.3.9-.1.9-.9 0-1.7-.3-1.9-1.2-.6zM139.2 169.8c-.9.6-.6 1.1 1.1 1.9 1.8.9 2.4.8 2.4-.2 0-.8-.7-1.1-1.5-.7-1 .3-1.3.1-.8-.6.8-1.4.6-1.5-1.2-.4zM149 170.1c0 .5.5.7 1 .4.6-.3 1-.8 1-1.1 0-.2-.4-.4-1-.4-.5 0-1 .5-1 1.1zM158.7 170.1c.7.7 1.5 1 1.8.7.3-.3-.2-.9-1.2-1.2-1.4-.6-1.5-.5-.6.5zM162.6 171.6c-.4.9-.4 1.9-.1 2.2.3.3.5 0 .5-.7s.4-.9 1-.6c.6.3.7-.1.4-.9-.8-2-1-2-1.8 0zM122 177l-2.5 2.1 2.8-1.2c1.5-.7 2.7-1.6 2.7-2.1 0-1.1-.1-1-3 1.2zM134.5 176c.3.5.8 1 1.1 1 .2 0 .4-.5.4-1 0-.6-.5-1-1.1-1-.5 0-.7.4-.4 1zM163 177.4c0 .2.7.7 1.6 1 .8.3 1.2.2.9-.4-.6-1-2.5-1.4-2.5-.6zM127 180c-1.1.7-1.1 1-.2 1 .7 0 1.1.4.8.9-.3.5.2 1.5 1.2 2.2 1.5 1.3 1.6 1.2.4-.3-1-1.3-1-1.7 0-2.1 1.1-.4 1-.6 0-.6-.7-.1-1-.6-.7-1.1.8-1.2.4-1.2-1.5 0zM117.3 181.7c0 1 .4 1 1.6.1.9-.7 1.8-1.3 2-1.5.2-.1-.5-.1-1.6 0-1.1 0-2 .7-2 1.4zM165 182.1c0 .5.5.7 1 .4.6-.3 1-.8 1-1.1 0-.2-.4-.4-1-.4-.5 0-1 .5-1 1.1zM125.3 183.9c0 1.1.5 1.8.9 1.5.4-.3.5-1.1.1-1.9-.7-2.1-1.2-1.9-1 .4zM118.2 188c0 1.4.2 1.9.5 1.2.2-.6.2-1.8 0-2.5-.3-.6-.5-.1-.5 1.3zM120.6 188.3c.3 1 .9 1.5 1.2 1.2.3-.3 0-1.1-.7-1.8-1-.9-1.1-.8-.5.6zM176.6 187.8c-.3.5.1.9.9.9s1.2-.4.9-.9c-.3-.4-.7-.8-.9-.8-.2 0-.6.4-.9.8zM181.4 188.1c-.5.9-.2 1 .9.6 1.8-.7 2.4.8.7 1.6-.6.3-.5.4.2.3 1.6-.3 1.7-2.8.1-3.3-.6-.2-1.5.1-1.9.8zM111.7 191.3c-.3.8-.2 2 .3 2.6.5.9.8.4.8-1.3 0-2.9-.3-3.2-1.1-1.3zM175.5 191c-.3.6.1.7.9.4 1.8-.7 2.1-1.4.7-1.4-.6 0-1.3.4-1.6 1zM114 192c0 .5.5 1 1.1 1 .5 0 .7-.5.4-1-.3-.6-.8-1-1.1-1-.2 0-.4.4-.4 1zM119.1 192.6c0 1.1.3 1.4.6.6.3-.7.2-1.6-.1-1.9-.3-.4-.6.2-.5 1.3zM125.8 192.8c-1.1 1.5-1.1 1.5.2.6.8-.6 2.3-1 3.3-.8 1.1.1 1.6 0 1.3-.4-1.3-1.2-3.6-1-4.8.6zM151 191.9c0 .6.4 1.3 1 1.6.6.3.7-.1.4-.9-.7-1.8-1.4-2.1-1.4-.7zM163.6 192.2c.3.5 1 .6 1.5.3 1.3-.9 1.1-1.2-.6-1.2-.8 0-1.2.4-.9.9zM103.3 193.7c.4.6.1 1.4-.5 1.7-.9.4-.8.5.2.4.8-.1 2.6.2 3.9.6 2.9 1 5.1-.8 3.2-2.7-1.1-1-1.3-.9-.8.5.8 2.3-1.1 2.3-4.2.1-1.4-.9-2.1-1.2-1.8-.6zM141.5 193.9c-.3.5-.2 1.2.3 1.5.5.3.9-.1.9-.9 0-1.7-.3-1.9-1.2-.6zM168 194.5c-.7.8-1.7 1.2-2.4.8-.6-.3-.7-.2-.3.2.4.5 1.5 1 2.3 1.1.9.1 1.3 0 1-.3-.3-.4-.1-1.2.5-2 .6-.7.9-1.3.6-1.3-.2 0-1 .7-1.7 1.5zM172.1 193.9c-.8.5-.9 1.1-.3 1.5.5.3 1.2-.1 1.6-.9.6-1.7.6-1.8-1.3-.6zM135.5 195c-.4.6-1.2.7-1.8.4-.7-.4-.8-.3-.4.2.5.5 1.3 1 1.8 1 .5.1 1.4.2 2 .3.5 0 .7.7.3 1.3-.4.7-.3.9.1.5 1.6-1.4 1.4-3.6-.3-3-1 .4-1.3.2-.8-.5.4-.7.5-1.2.2-1.2s-.8.5-1.1 1zM180 194.6c0 1.3 1.8 3.9 2.4 3.4.2-.3-.2-1.4-1-2.4-.8-1.1-1.4-1.6-1.4-1zM114.8 195.7c.7.3 1.6.2 1.9-.1.4-.3-.2-.6-1.3-.5-1.1 0-1.4.3-.6.6z"/><path d="M118.7 196.1c2 2 .4 3.6-3.2 3.4-1.9-.2-3.2.1-2.9.6.3.5 0 .9-.6.9s-1-.8-.8-1.8c.2-1 1.1-1.6 2.3-1.4 1.6.2 1.7.1.6-.7-1.9-1.2-5.1.8-4.4 2.8.3 1.1 0 1-1.1-.3-.9-1.1-1.6-1.5-1.6-.9 0 .7.5 1.5 1 1.8.6.3 1 1 1 1.6 0 .5-.9.4-1.9-.3-1.1-.7-1.7-1.6-1.4-2.2.3-.5.1-.6-.5-.2-.9.5-.9 1.3-.2 2.6 1.3 2.5 1.2 4-.1 1.7-.6-.9-1.5-1.4-2.1-1.1-.8.5-.9.1-.5-1.1.7-1.7.6-1.7-1.8-.1-1.4.9-2.5 1.2-2.5.7 0-.6.6-1.4 1.4-1.8 1.2-.7 1.2-1-.1-2.2-1.2-1.1-1.4-1-1.1.4.2 1-.3 2-1.1 2.3-.9.3-1.1 0-.6-.9.5-.8.5-1.1 0-.7-.4.4-1.5.3-2.4-.2-1-.5-2.2-.6-2.8-.2-1.4.9-1.3 4.3.1 3.4.6-.3 1.9-.8 3-.9 1.5-.3 1.6-.1.7 1.1-.8 1-.9 1.6-.1 2.1.5.3 1 .3 1-.1s.9.1 2 1.1 2 1.5 2 1c0-.4.7-.2 1.6.5 1.2 1.1 1.5 1.1 1.2-.1-.2-.8.5-1.4 1.5-1.4s2.1-.5 2.5-1c1.1-1.5 3.2-1.7 3.2-.3 0 .7.5.5 1.1-.5 1-1.8 1.1-1.8 3.2 0 1.1 1 1.7 1.3 1.4.6-1.1-1.8 1.6-2.1 4.1-.5 1.4.9 2.6 1.2 3 .6.8-1.2 2.2-1.2 4.1 0 .9.6 1.2.5.8-.1-.9-1.5 1.8-2.4 3.1-1.1.7.7 1.4.3 2.2-1.1 1.1-2.1 3-2.1 3 0 0 .6-.4.7-1 .4-.6-.3-.7.1-.4.9.4 1.1 1.5 1.4 3.2 1.1 1.4-.2 3.1 0 3.8.6.9.7 1.6.5 2.4-1 .6-1.2 1.6-2.1 2.3-2.1.8 0 .8.3-.2.9-.7.5-1 1.4-.6 2 .4.8 1.1.9 1.9.2 1.3-1.1 3.4-1 5.3.2 1.8 1.1 2.3-.6.7-2.7-1.1-1.6-1.6-1.7-2.9-.6-1.2 1-1.8 1-3 0-.8-.6-1.9-.9-2.5-.5-.5.3-1 .1-1-.4 0-.6.5-1.1 1.2-1.1.6 0 .8-.3.4-.7-1.1-1.1-3.6 2.6-2.9 4.4.5 1.3.3 1.3-1.5.2s-1.9-1.5-.7-2.2c1.7-.9 1.1-2.7-.8-2.7-.9 0-.9.2 0 .8.9.5.6 1.1-.9 2.1-1.8 1.1-2 1.1-1.5-.4.4-.9.3-1.4-.2-1-.5.3-1.1-.1-1.4-.7-.4-1-.7-1.1-1.8-.1-1.9 1.8-3.4 1.6-1.9-.2.7-.9 1-1.8.6-2.2-.3-.3-.6-.1-.6.6 0 .8-.5.9-1.8.2-1-.5-2.4-.6-3.1-.2-1.1.7-1.1.9 0 1.3.8.3.9.7.3 1.1-.6.3-2.1-.3-3.4-1.5l-2.2-2.1.7 2.4c.7 2.1.6 2.2-.8 1.1-.9-.8-1.4-1.9-1.1-2.6.3-.8-.3-1.7-1.3-2-1.4-.6-1.5-.4-.6.5zm11.9 3.7c-.3.3 0 1.2.7 2.1 1 1.4 1 1.4-.4.4-.9-.7-1.9-1-2.2-.6-.4.3-1.7.7-2.9.7-1.3.1-2.9.6-3.7 1-1 .6-1.2.5-.7-.2.8-1.4-2.9-1.9-6.3-1-.5.2-.9-.2-.9-.7.1-1.3 6.6-1.6 7.4-.3.3.5 1.1.5 1.9-.2 1-.8 1.5-.8 2 0s1.1.8 2.1-.1c.7-.6 1.1-1.5.8-2-.3-.5.2-.6 1.1-.3.9.4 1.3.9 1.1 1.2zm-37.2 0c.3.5-.1.9-.9.9s-1.2-.4-.9-.9c.3-.4.7-.8.9-.8.2 0 .6.4.9.8zm6.1 3.2c.5-.8 1.1-.8 1.9-.1.7.6 1.7.7 2.2.3.4-.4.3 0-.4 1-1.4 1.8-3.3 1.8-5.4 0-.8-.6-1.9-.8-2.3-.4-.5.4-.5.1-.1-.6.6-1 1.1-1 2.1-.2s1.5.8 2 0zm53.6.7c1.2 1.6 1.2 1.7-.2.6-.9-.7-2-.9-2.4-.5-.5.4-.5.1-.1-.6.9-1.6 1.1-1.5 2.7.5z"/><path d="M99.6 203.8c-.3.5.1.9.9.9s1.2-.4.9-.9c-.3-.4-.7-.8-.9-.8-.2 0-.6.4-.9.8zM123.6 196.5c.4.8.8 1.5 1 1.5.2 0 .4-.7.4-1.5s-.4-1.5-1-1.5c-.5 0-.7.7-.4 1.5zM129.5 196c.3.5.8 1 1.1 1 .2 0 .4-.5.4-1 0-.6-.5-1-1.1-1-.5 0-.7.4-.4 1zM175.7 196.1c.7.7 1.5 1 1.8.7.3-.3-.2-.9-1.2-1.2-1.4-.6-1.5-.5-.6.5zM152.3 196.7c.9.2 1.4.9 1.1 1.5-.4.7-.2.8.5.4 1.5-1 .4-2.6-1.7-2.5-1.5.1-1.5.2.1.6zM159.3 197.5c0 .8.4 1.5.9 1.5.4 0 .8-.4.8-.9 0-.6-.4-1.2-.8-1.5-.5-.3-.9.1-.9.9zM169.6 197.7c-.6 1.4-.5 1.5.5.6.7-.7 1-1.5.7-1.8-.3-.3-.9.2-1.2 1.2zM102 198.2c0 1.1 1.2 1 3-.2 1.2-.7 1-.9-.8-.7-1.2 0-2.2.5-2.2.9zM171.9 198c-.2 1.3-.6 2.9-.9 3.2-.8 1.1-.6 3.5.4 3.4.6 0 1.2.3 1.3.8.4 2.5 2.8 2.2 5.4-.6 1.8-1.8 3.3-2.7 4.1-2.2.9.5.8.1-.2-1.2-2.2-2.9-2.4-3-1.7-1.2.4 1.2.1 1.6-1.4 1.5-1-.1-1.9-.6-1.9-1.1 0-.5-.6-.1-1.4.9-1.3 1.8-1.4 1.8-2.3-.1-.6-1-.8-2.5-.6-3.2.3-.6.2-1.2-.1-1.2-.3 0-.7.4-.7 1zm1.6 5c.4.6 1.2.7 1.8.3 2.6-1.6 3.9-1.2 2.1.8-1.6 1.8-1.8 1.8-3.8.2-1.2-1-2.3-1.9-2.5-2-.2-.2.1-.3.7-.3s1.4.5 1.7 1z"/><path d="M174.3 199.2c-.1 1.1.1 1.6.5 1.2.4-.5 1.1-1.2 1.5-1.5.5-.3.2-.9-.5-1.2-.9-.3-1.4.3-1.5 1.5zM178.5 198.1c-.4.6-.5 1.2-.2 1.5.2.3.7-.2 1-1.1.7-1.7.1-2-.8-.4zM148.6 199.5c-.3.8-.1 1.5.4 1.5.6 0 1-.7 1-1.5s-.2-1.5-.4-1.5-.6.7-1 1.5zM87.6 199.8c-.2.4-.1 1.4.4 2.2.7 1.1.9.9.7-.8-.1-2.4-.3-2.6-1.1-1.4zM188.9 183.6c.6 1.2.7 2.4.4 2.8-.3.3-.1.6.6.6s1 .4.6.9c-.3.5 0 1.3.6 1.7.7.4.9.3.6-.3-.4-.6 0-1.4.9-1.7 2.4-.9 2.8-.7 1.4.9-.7.8-.9 1.5-.4 1.5.5.1-.4.6-1.9 1.3-2.7 1.2-2.7 1.2-.8 2.4 1.7 1.1 2.1 1 2.6-.7.4-1.1 1.1-1.8 1.6-1.4.5.3.6 1.1.3 1.7-.4.7-.3.8.2.4.5-.5 1-1.3 1-1.8.1-.5.2-1 .4-1.2 1.1-1.4.3-4.1-1.7-5.7-2.9-2.2-4.3-2.5-4.3-.9 0 .5.4.8.8.5.5-.3.9.1.9.9s-.4 1.5-.9 1.5c-.4 0-.8-.4-.8-.8 0-.5-.7-1.7-1.6-2.8-1.5-1.8-1.5-1.8-.5.2zm7.6 5.2c-.2.9-.4 1.8-.4 2-.1.2-.6 0-1.1-.3-.8-.5-.8-1.1-.1-1.9.7-.9.7-1.7-.2-2.6-1-1.2-.9-1.2.5-.2.9.7 1.5 2.1 1.3 3zM207.6 191.9c-.4.5-.2 1.2.3 1.5.5.4 1.2.2 1.5-.3.4-.5.2-1.2-.3-1.5-.5-.4-1.2-.2-1.5.3zM189.2 196.7c.1 1-.1 2.3-.4 2.9-.4.6-.1 1.1.7 1.1.8 0 1.4-.3 1.3-.6-.2-2.2.4-3.1 1.5-2.5.8.5.8.2-.2-.9-1.8-2.2-3.3-2.2-2.9 0zM104 184c-.7.4-2.2.7-3.3.5-1.5-.4-1.7-.2-.7 1.1 1 1.1 1.6 1.2 2.7.2 1.1-.9 1.9-.9 3.5.1s2.3 1 3.2 0c.8-.9.8-1-.3-.4-.9.5-1.8.2-2.6-.8-.7-1-1.6-1.3-2.5-.7zM92.8 226.9c-.7.9-.8 1.3-.4.9.5-.4 1.5-.3 2.3.4.7.6 1.6.8 2 .4.3-.3.1-.6-.7-.6-.9 0-1-.3-.1-1.3.8-1 .7-1.4-.4-1.4-.9 0-2.1.7-2.7 1.6zM55.3 51.7c.4.3.1 1.3-.6 2.2-1.1 1.4-1 1.4.6.2 2-1.5 2.2-3.1.5-3.1-.6 0-.8.3-.5.7zM248.6 52.2c.3.5 1 .6 1.5.3 1.3-.9 1.1-1.2-.6-1.2-.8 0-1.2.4-.9.9zM51 53c0 .5.5 1 1.1 1 .5 0 .7-.5.4-1-.3-.6-.8-1-1.1-1-.2 0-.4.4-.4 1zM35.5 53.9c-.3.5-.2 1.2.3 1.5.5.3.9-.1.9-.9 0-1.7-.3-1.9-1.2-.6zM240.2 55.5c1.5 1.6 2 1.7 3 .6 1.1-1.1 1-1.3 0-.7-.7.4-2.1.2-3-.5-1.5-1.2-1.5-1.1 0 .6zM248 54.8c0 .6-.8.9-1.7.6-1.5-.5-1.6-.4-.3.5 1.6 1.1 4-.3 2.7-1.6-.4-.3-.7-.1-.7.5zM52.3 56.5c0 .8.4 1.2.9.9.4-.3.8-.1.8.5s.7.8 1.5.5c.8-.4 1.5-1 1.5-1.6 0-.5-.5-.6-1-.3-.6.4-1.7.2-2.4-.4-.9-.8-1.3-.7-1.3.4zM31.6 57.8c-.3.5.1.9.9.9s1.2-.4.9-.9c-.3-.4-.7-.8-.9-.8-.2 0-.6.4-.9.8zM59.3 58c-1.3.5-2.3 1.4-2.3 2 0 .6-.6.8-1.2.5-.7-.4-.2.3 1.1 1.4 1.3 1.2 2 2.1 1.6 2.1-.5 0 0 .9 1 2s2.2 1.7 2.6 1.4c.5-.3.9.1.9.8 0 1 .2 1 .9-.1s1-.9 1.6.8c.4 1.3.9 2 1.2 1.7.4-.3 1.3 0 2.1.6 2.3 2 5.2 2 5.2 0 0-.9-.4-1.3-.8-.7-1.2 1.6-3.2 1.6-3.8 0-.4-.8-1.2-1.5-2-1.5s-1.4-.5-1.4-1c0-1.5 1.6-1.2 3.4.6.9.8 1.6 1 1.6.4s-.7-1.3-1.5-1.6c-.8-.4-1.2-1.1-.9-1.6.4-.6-.2-.5-1.4.1-1.7.9-2.3.8-3.1-.6-.7-1.3-1-1.4-1.1-.4 0 2-1.3.5-1.7-2.1-.3-1.8-.1-1.9 1.4-.7 1.6 1.2 1.7 1.2.6-.2-.7-.9-.9-2-.5-2.4.4-.5 0-.4-.8.1-2 1.1-4 1.4-4 .5 0-.4 1.2-1.2 2.8-1.8 1.5-.6 2.3-1.1 1.7-1.1-.5-.1-2 .3-3.2.8zm1.1 5.2c.1.7.5 2 1 2.8.7 1.2.6 1.3-.4.3-.8-.7-1.5-2.3-1.7-3.5-.2-1.2-.1-1.9.3-1.6.3.3.6 1.2.8 2zM244.5 58c.3.5 1.1 1 1.6 1 .6 0 .7-.5.4-1-.3-.6-1.1-1-1.6-1-.6 0-.7.4-.4 1zM31.5 61c-.4.6-1.1.7-1.7.4-.7-.4-.8-.2-.4.5.6.9 1.1.9 2.2 0 1.4-1.1 1.8-1.9 1-1.9-.3 0-.8.5-1.1 1zM36 61.5c-1 1.2-1 1.8-.2 2.6.7.5 1 .6.7.3-.2-.4 0-1.5.6-2.5 1.2-2.3.6-2.5-1.1-.4zM69 62c0 .5.5 1 1.1 1 .5 0 .7-.5.4-1-.3-.6-.8-1-1.1-1-.2 0-.4.4-.4 1zM234.4 62.1c-.3.5 0 .8.7.7.6-.2 1.4.3 1.7 1.1.3 1 0 1.2-1.1.8-.9-.3-2.1.1-2.9 1.1-1.1 1.3-1.1 1.4.2.7.8-.5 2-1 2.5-1.1.6 0 1.5-.2 2.2-.2.6-.1 1-1 .9-1.9-.3-1.8-3.3-2.7-4.2-1.2zM261 62c0 .5.5 1 1.1 1 .5 0 .7-.5.4-1-.3-.6-.8-1-1.1-1-.2 0-.4.4-.4 1z"/><path d="M65 63.5c0 .8.4 1.5 1 1.5.5 0 .7-.7.4-1.5-.4-.8-.8-1.5-1-1.5-.2 0-.4.7-.4 1.5zM265.2 62.9c-1.1.7-1.1.9 0 1.4.9.3 1.5-.1 1.5-.9s-.1-1.4-.1-1.4c-.1 0-.7.4-1.4.9zM33.1 64c.3 2.8-.1 4-1.2 3.7-.6-.1-1.4.5-1.6 1.3-.3.9-.1 1.1.4.5.4-.6 1.4-1 2.1-.9.6.1 1.6.2 2.1.3.8.1.8 1.7.1 4.1-.1.3-.5-.4-1-1.5-.8-2-.9-1.9-.9.1-.1 1.2.6 2.7 1.4 3.4 1.6 1.3 1.6 3.1 0 4.2-.6.5-.5 1.1.3 1.7 1.9 1.2 1.9 1.6-.1 3.9-1 1.1-1.7 2.9-1.4 3.9.4 1.5.5 1.4.6-.4.1-1.6.6-2.1 1.6-1.7.8.4 1.2 1.1.8 1.8-.5.6-.8 2.2-.8 3.4-.1 2 .1 2.1 1.1.8.6-.9 1.5-1.2 1.9-.8.5.4.5.1 0-.7-.9-1.6-1.6-6.2-1.7-11.9-.1-2.3-.5-4.2-1-4.2-.4 0-.8-.5-.8-1.1 0-.5.4-.8.8-.5.5.3.8-.7.7-2.1 0-1.5-.6-2.8-1.3-3.1-.7-.2-1.2-.8-1.2-1.3 0-.4.8-.6 1.8-.3 1.3.5 1.4.4.3-.4-.7-.5-1.8-1.6-2.3-2.3-.7-1.2-.9-1.1-.7.1zM269.5 66c-.3.5-.1 1 .4 1 .6 0 1.1-.5 1.1-1 0-.6-.2-1-.4-1-.3 0-.8.4-1.1 1zM75.5 69.1c-.4.6-.5 1.2-.2 1.5.2.3.7-.2 1-1.1.7-1.7.1-2-.8-.4zM224.5 70.1c-.4.6-.5 1.2-.2 1.5.2.3.7-.2 1-1.1.7-1.7.1-2-.8-.4zM227.5 70c.3.5.8 1 1.1 1 .2 0 .4-.5.4-1 0-.6-.5-1-1.1-1-.5 0-.7.4-.4 1z"/><path d="M30.1 72.6c0 1.1.3 1.4.6.6.3-.7.2-1.6-.1-1.9-.3-.4-.6.2-.5 1.3zM77 72.4c0 .8.4 1.7.9 2 .5.4.7-.3.4-1.4-.6-2.3-1.3-2.6-1.3-.6zM79.5 71.9c-.3.5-.2 1.2.3 1.5.5.3.9-.1.9-.9 0-1.7-.3-1.9-1.2-.6zM218 71.4c0 .2.8 1 1.8 1.7 1.5 1.3 1.6 1.2.3-.4s-2.1-2.1-2.1-1.3zM214.9 73.7c-1.3 1.6-1.2 1.7.4.4.9-.7 1.7-1.5 1.7-1.7 0-.8-.8-.3-2.1 1.3zM204.7 74.1c.7.7 1.5 1 1.8.7.3-.3-.2-.9-1.2-1.2-1.4-.6-1.5-.5-.6.5zM210.6 74.2c.3.5 1 .6 1.5.3 1.3-.9 1.1-1.2-.6-1.2-.8 0-1.2.4-.9.9zM30.5 76c-.4.6-.4 1.4-.1 1.7.3.4.6.1.6-.5 0-.7.5-1.2 1.1-1.2.7 0 .5 1-.6 2.6-.9 1.4-1.4 2.8-1.1 3.2.3.3.6 0 .6-.7s.4-1 .8-.7c.5.3.9 0 .9-.7s.2-1.8.4-2.6c.5-1.7-1.7-2.6-2.6-1.1zM109 76.1c0 .5.5.7 1 .4.6-.3 1-.8 1-1.1 0-.2-.4-.4-1-.4-.5 0-1 .5-1 1.1zM195.5 76c-.3.5-.1 1 .4 1 .6 0 1.1-.5 1.1-1 0-.6-.2-1-.4-1-.3 0-.8.4-1.1 1zM217.8 75.7c.6.2.9 1 .6 1.5-.5.7-.2.8.6.3s1.1-.3.8.6c-.3.8-1.2 1.3-2.2 1.1-.9-.2-1.6.2-1.6.8 0 .6-.5.8-1.2.4s-.8-.3-.4.5c.4.7-.2 1.4-1.5 1.9-1.4.5-1.8 1.1-1.1 1.6.6.3 1.4.2 1.7-.4.5-.8 1.1-.8 2 0 .9.8 1.4.7 1.8-.4.4-1.1.1-1.3-1.1-.9-1.5.6-1.5.5-.3-1 1.3-1.7 1.5-1.6 3.3.3 1 1.1 2.2 2 2.5 2 .4 0 .2-.5-.5-1.2-.9-.9-.6-1.9 1.6-4.2 1.5-1.6 2.1-2.6 1.5-2.2-.7.4-1.3.2-1.3-.3 0-.6-.5-1.1-1.1-1.1-.8 0-.9.4 0 1.3.6.8.8 1.7.4 2-.3.4-1.2-.2-2-1.3s-2-2-2.6-1.9c-.9 0-.8.2.1.6zM87 78.1c0 .5.5.7 1 .4.6-.3 1-.8 1-1.1 0-.2-.4-.4-1-.4-.5 0-1 .5-1 1.1zM202.8 78.2c1 1.3 1 1.7 0 2.1-.7.3-.3.4 1 .4 1.2-.1 2.2-.4 2.2-.7 0-.3-1-1.1-2.2-1.9-2.1-1.3-2.2-1.3-1 .1zM107.6 80.7c.4 2.2.2 2.5-.7 1.6-.9-.9-1.5-.8-2.8.4-1.8 1.8-1.7 2.8.2 2.8.6 0 1.7.4 2.4.8.6.4 1.4.3 1.8-.3.9-1.5 2.8-1.2 1.9.2-.4.7-.3 1 .1.5.5-.4 1.7 0 2.7 1 1 .9 1.8 1.3 1.8.8 0-.4.6-.2 1.4.4.9.8 1.6.8 2 .2.4-.5.2-1.2-.3-1.6-.7-.4-.7-1.5 0-3.2.5-1.4.7-2.8.5-3.1-.3-.2-.8.8-1.2 2.3-.7 2.7-.8 2.7-2.2.9-1.1-1.4-1.3-1.5-.9-.2.3.9.3 1.9 0 2.2-.9.8-6.5-5.3-5.8-6.4.3-.5.1-1.1-.4-1.5-.6-.3-.8.6-.5 2.2zm-.6 3.5c0 .9.4.8 1-.2.6-.9 1-1 1-.3 0 1.6-1.7 2.6-2.5 1.4-.3-.6-1.3-.8-2.3-.5-1.4.5-1.5.4-.2-.5 2-1.4 3-1.4 3 .1zm10.1 3.5c1.2 1.6 1.2 1.7-.2.6-.9-.7-2-.9-2.4-.5-.5.4-.5.1-.1-.6.9-1.6 1.1-1.5 2.7.5zM103.1 80.6c0 1.1.3 1.4.6.6.3-.7.2-1.6-.1-1.9-.3-.4-.6.2-.5 1.3zM75.7 81.7c-1 .9 3.4 5.4 4.5 4.7.6-.4-.1-1.2-1.4-1.8-1.2-.7-2.2-1.8-2-2.4.2-1.3-.1-1.5-1.1-.5z"/><path d="M110 81.4c0 .2.7.9 1.5 1.6.9.7 1.5.8 1.5.2 0-.5-.7-1.2-1.5-1.6-.8-.3-1.5-.4-1.5-.2zM179 81.4c0 .2.7.7 1.6 1 .8.3 1.2.2.9-.4-.6-1-2.5-1.4-2.5-.6zM187 82c0 .5.5 1 1 1 .6 0 1-.5 1-1 0-.6-.4-1-1-1-.5 0-1 .4-1 1zM33 82.9c0 .8-.7 1.1-1.7.6-1.5-.5-1.6-.4-.5.6.9 1 1.5 1 2.4.1.6-.6.9-1.5.5-1.9-.4-.3-.7-.1-.7.6zM177.6 84.5c-.3.8 0 1.7.6 2.1.6.4.8.3.4-.4-.3-.6.2-1.2 1.1-1.4 1.6-.3 1.7-.4.1-1-1-.4-1.8-.1-2.2.7zM183.8 83.7c.7.3 1.6.2 1.9-.1.4-.3-.2-.6-1.3-.5-1.1 0-1.4.3-.6.6zM126 86c.8.5 2 1 2.5 1 .6 0 .3-.5-.5-1s-1.9-1-2.5-1c-.5 0-.3.5.5 1zM171.4 88c0 1.5.4 1.6 1.8.9 1-.5 1.8-1.5 1.7-2.2 0-.9-.2-.8-.6.1-.3.9-.9 1-1.7.3-.8-.7-1.2-.5-1.2.9zM129.4 90.2c-.4.7-.3.8.4.4s1.2-.1 1.2.8.4 1.6.8 1.6c.5 0 .9-.7.9-1.5 0-1.8-2.4-2.8-3.3-1.3zM261.5 91.9c.3 1.9-.3 3.7-1.6 5.2-1 1.2-1.9 2.6-1.9 3.1 0 1.1 2.2 1 4-.3 1.2-.8 1-.9-.9-.4l-2.3.7 2.3-3.3c1.3-1.9 2.9-3.8 3.4-4.2.6-.5.3-.7-.7-.3-1 .3-1.8.1-1.8-.4 0-.6.5-1 1.1-1 .5 0 .7-.5.4-1-1.2-2-2.3-.9-2 1.9zM267.4 89.8c.4.3 1.4.7 2.2.8.9.1 1.3 0 1-.4-.4-.3-1.4-.7-2.2-.8-.9-.1-1.3 0-1 .4zM162.9 91.7c-1.3 1.6-1.2 1.7.4.4 1.6-1.3 2.1-2.1 1.3-2.1-.2 0-1 .8-1.7 1.7zM169.6 93.2c.6 2 .5 2.1-1 .9-1-.9-1.6-1-1.6-.2 0 .6.5 1.1 1 1.1 1.9 0 1 1.6-.9 1.7-1.4.1-1.8-.3-1.4-1.5.4-1.4.3-1.4-.5-.3-.6.8-.7 2.1-.4 3 .5 1.3.3 1.4-1 .3-1.3-1-1.5-.9-1.4 1 .1 3.1 1.7 3.2 4.8.4 1.4-1.4 2.9-2.2 3.4-1.8.4.4.4.1 0-.6-1.1-1.9.3-3.5 2-2.1 1.2 1 1.3.9.8-.5-.3-.9-1.3-1.6-2.1-1.6s-1.1-.5-.8-1c.3-.6.1-1-.5-1-.7 0-.9.8-.4 2.2zm-3.1 5.8c-2 2.2-3.5 2.6-3.5.9 0-.5.4-.8.9-.5.5.3 1.4-.1 2.1-.9.7-.8 1.5-1.5 1.8-1.5.3 0-.3.9-1.3 2zM29 94.1c0 .5.5.7 1 .4.6-.3 1-.8 1-1.1 0-.2-.4-.4-1-.4-.5 0-1 .5-1 1.1zM37 94.5c-1 1.2-1.6 1.3-2.9.3-1.4-1.2-1.4-1.1-.2.4 1.7 2.3 2.3 2.3 3.9-.2 1.4-2.4 1-2.6-.8-.5zM140.7 94.1c.7.7 1.5 1 1.8.7.3-.3-.2-.9-1.2-1.2-1.4-.6-1.5-.5-.6.5z"/><path d="M264.4 95.4c-1 .8-1.6 1.8-1.1 2.2.4.4.7.2.7-.5s.4-1 .9-.7c.5.3 1.1-.1 1.5-.9.7-1.9.5-1.9-2-.1zM136 96c-.8.5-1 1-.5 1 .6 0 1.7-.5 2.5-1s1.1-1 .5-1c-.5 0-1.7.5-2.5 1zM159.3 97c-.1 1.1.2 2 .7 2 .4 0 .7-.7.6-1.5-.3-2.3-1.2-2.6-1.3-.5zM145.2 98c.2.9-.4 1.4-1.4 1.4-1-.1-1.5.2-1.3.6.3.5 1.4.8 2.4.7 1.8-.1 2.2-1.9.7-3.4-.4-.4-.6-.1-.4.7zM150 98c-1.2.7-1 .9.7.7 1.2 0 1.9-.5 1.7-.9-.6-1-.6-1-2.4.2zM138.5 100.6c-1.1.8-2.5 1.2-3.3.9-.7-.2-1-.1-.7.4.7 1.2 4.5 1 4.5-.2 0-.5.7-.4 1.5.3.9.7 1.8 1 2.2.7.3-.4-.2-.9-1.1-1.3-.9-.3-1.3-1-1-1.5.7-1.2.2-1.1-2.1.7zM261.6 101.8c-.3.5.1.9.9.9s1.2-.4.9-.9c-.3-.4-.7-.8-.9-.8-.2 0-.6.4-.9.8zM258 102.7c.5.2.8.9.4 1.4-.3.5 0 .9.6.9 1.5 0 .7-2.3-.8-2.6-.7-.1-.8 0-.2.3zM49.9 103.2c-.6 2-.6 3.9 0 4.2.4.3.7-.6.7-2 0-2-.4-3.2-.7-2.2zM149 104.2c0 .6.7.7 1.6.4 1.2-.5 1.4-.1.9 1.7-.5 2-.5 2 .5.4.7-1 .9-2.1.6-2.5-1.1-1-3.6-1.1-3.6 0zM264 104c-.9.6-1 1-.3 1 .6 0 1.5-.5 1.8-1 .8-1.2.4-1.2-1.5 0zM41 106c-.9.6-1 1-.3 1 .6 0 1.5-.5 1.8-1 .8-1.2.4-1.2-1.5 0zM40.1 110.4c-.9 1.1-.9 1.6.1 2.2.7.4 1 .4.6-.1-.4-.4-.3-1.4.3-2.2.6-.7.9-1.3.6-1.3-.2 0-1 .6-1.6 1.4zM50.4 109.7c.3.6.2 1.4-.4 1.8-.6.4-.8 1.1-.5 1.6.4.5-.1 1.2-1 1.5-1.3.6-1.4.8-.3 1.5 1 .7.9.9-.4.9-.9 0-2 .5-2.4 1.1-.4.8.1.9 1.7.4 2.1-.7 2.2-.6 1 .8-.7.9-1.7 1.5-2 1.2-.4-.2-.8.1-.8.8 0 .7-.4 2.1-.8 3.2-.4 1.2.1.9 1.3-.8 1.3-2 2.1-2.5 2.4-1.5.3.7-.2 1.8-1 2.4-.8.6-1.6 2.2-1.8 3.5-.1 1.3-.3 2.6-.3 2.8-.1.2-.9-.3-1.8-1-1.6-1.2-1.5-1.1 0 .8 1.1 1.2 1.6 2.7 1.1 3.4-.5.8-.3 1 .5.5.7-.5 1-1.5.7-2.3-.4-.9-.1-1.3.6-1 .7.2 1.2 1 1 1.6-.1.7.2 1 .8.6.6-.3.8-1 .5-1.5-.3-.5-.1-1.1.5-1.5 1.5-.9.2-2.5-1.5-1.8-.8.3-1.5.1-1.5-.5 0-.5.9-1.2 2.1-1.5 1.2-.3 1.8-1 1.5-1.6-.4-.5-.2-1.2.4-1.6.6-.3.8-1.7.6-3-.3-1.4-.1-2.7.4-3 .4-.3.7-1.3.6-2.3-.2-.9.2-2 .8-2.4.7-.5.5-1.3-.8-2.5-1-1-1.6-1.3-1.2-.6zm.2 5.8c-.1.8-.5 1.7-.8 2.1-.5.4-.4-1.6.1-3.4.3-.9.9.1.7 1.3zm-.9 5.7c.2 1.7 0 1.9-.7.8-.5-.8-.6-1.8-.4-2.2.8-1.2 1-1 1.1 1.4zM142 110c0 .5 1 1.5 2.3 2.1 2.2 1.2 2.2 1.2.3-1-2.1-2.3-2.6-2.6-2.6-1.1zM249 112.3c0 .8.6 1.4 1.4 1.4.8 0 1.2-.6.9-1.4-.3-.7-.9-1.3-1.4-1.3-.5 0-.9.6-.9 1.3zM43 114c0 .6.7 1 1.5 1s1.5-.2 1.5-.4-.7-.6-1.5-1c-.8-.3-1.5-.1-1.5.4zM149.3 115.3c-.1 1.1-.1 1.8 0 1.6.2-.2.8-1.1 1.5-2 .9-1.2.9-1.6-.1-1.6-.7 0-1.4.9-1.4 2zM263.1 115.3c-1.3 2.1-1.2 2.1.5.5 1-1 1.6-2 1.3-2.2-.3-.3-1.1.5-1.8 1.7zM257.2 116c0 1.4.2 1.9.5 1.2.2-.6.2-1.8 0-2.5-.3-.6-.5-.1-.5 1.3zM40.5 120.1c-.3.4.2.6 1 .5 2.1-.3 2.8-1.3 1-1.3-.9 0-1.8.4-2 .8zM41.4 123.1c-.3.6-.2 1.5.3 2s.9.1.9-1.1c0-2.3-.2-2.4-1.2-.9zM257.4 124.7c.1.7.6 1.6 1.1 2 .4.4.5.3.1-.4-.3-.6.2-1.6 1.1-2.2 1.6-.9 1.6-1-.3-.8-1.2 0-2.1.7-2 1.4zM253.2 128.1c-1.5 1.9-1.9 3-1.1 3.5.8.4.7.9-.2 1.5-1.2.7-1.2.9 0 .9.9 0 1 .4.4 1.2-1.3 1.8-1 4.4.5 4 .7-.1 1.2.4 1.2 1.2 0 .7.6 1.9 1.3 2.5 1 .8 1.4.7 1.4-.4 0-.8-.5-1.1-1-.8-.6.4-.8-.4-.5-2 .4-2 .2-2.4-1.1-1.9-1.4.5-1.4.4-.1-1.4.8-1 2-2.3 2.5-2.7.6-.5-.1-.5-1.5-.1-2.3.6-2.4.5-1.1-1 1.3-1.5 1.3-1.9 0-2.7-.8-.5-1.2-.9-.9-1 .3 0 1.3-.2 2.3-.4.9-.2 1.7.2 1.7.8 0 .5.3.8.6.4.3-.3 0-1.4-.7-2.5-1.3-1.8-1.5-1.8-3.7.9zM40.9 135.7c-1.3 1.6-1.2 1.7.4.4.9-.7 1.7-1.5 1.7-1.7 0-.8-.8-.3-2.1 1.3zM45.6 135.9c-.6 1 2.4 2.5 3.2 1.6.3-.3-.1-.5-.9-.5-1.1 0-1.1-.2.1-1 1.3-.8 1.3-1-.2-1-.9 0-1.9.4-2.2.9zM43 138c0 .5.7 1 1.6 1 .8 0 1.2.4.9 1-.3.5-.1 1 .4 1 1.8 0 1.2-1.9-.9-3-1.4-.7-2-.7-2 0zM255 145.9c0 .5.8 1.5 1.8 2.2 1.5 1.2 1.6 1.2.5-.2-.7-.9-1-1.9-.6-2.2.3-.4.1-.7-.5-.7-.7 0-1.2.4-1.2.9zM258.7 146.1c.7.7 1.5 1 1.8.7.3-.3-.2-.9-1.2-1.2-1.4-.6-1.5-.5-.6.5zM46 146.8c0 .3.8 1.4 1.7 2.4 1.4 1.5 1.5 2.1.4 2.7-.9.6-.5.8 1.3.8 3.3 0 3.3-.3-.4-3.7-1.6-1.5-3-2.5-3-2.2zM45.3 150.5c0 .8.4 1.2.9.9.5-.3.6-1 .3-1.5-.9-1.3-1.2-1.1-1.2.6zM49.1 154.8c-.1.8.8 1.6 1.9 1.9 2.4.6 2.4.7.4 3.8-1.6 2.5-.5 2.9 2.5 1.1 1.1-.7 1.3-.5.8.7-.3.9-.1 1.9.5 2.3.7.4.8.3.4-.4s-.2-1.2.5-1.2c.6 0 .9.8.6 1.9-.3 1.5-.1 1.8 1.2 1.4 1.2-.3 1.1-.1-.3 1.1-2.3 1.8-1.4 2.1 1.2.5 1.8-1.1 1.7-1.3-.5-3.7-1.2-1.3-2.1-2.7-1.9-3.1.2-.3-1-2.2-2.6-4.1-1.7-1.9-2.8-2.9-2.4-2.3.4.7.3 1.3-.3 1.3-.5 0-1.2-.6-1.4-1.3-.4-.9-.6-.9-.6.1zm6.5 5.4c.4.7.4 1-.1.6-.4-.4-1.4-.3-2.2.3-1.3 1.1-1.9-.2-.6-1.4 1-1.1 2.1-.8 2.9.5zM247.8 154.7c.6.2 1.2.9 1.2 1.4 0 .6-.6.7-1.2.3-.7-.4-1-.3-.5.1.7.8 4.7 1.5 4.7.9 0-.8-3.3-3.4-4.3-3.3-.9 0-.8.2.1.6zM253.1 154.9c-.8.5-.9 1.1-.3 1.5.5.3 1.2-.1 1.6-.9.6-1.7.6-1.8-1.3-.6zM47.4 158.5c.3 2.3 1.2 2.6 1.3.5.1-1.1-.2-2-.7-2-.4 0-.7.7-.6 1.5z"/><path d="M53.6 166.3c.3 1 .9 1.5 1.2 1.2.3-.3 0-1.1-.7-1.8-1-.9-1.1-.8-.5.6zM247 167.9c0 .6.4 1.3 1 1.6.6.3.7-.1.4-.9-.7-1.8-1.4-2.1-1.4-.7zM59.9 168.2c-.1.2-.2 1.5-.3 2.9-.2 2.3.2 2.6 2.6 2.4 1.8-.2 2.7.2 2.5.9-.2.6-1.3 1-2.3.8-1.8-.2-1.8-.2-.1.9 1 .6 2.1.8 2.4.5.9-.9 1.2-5.6.3-5.1-.5.3-1.2 0-1.5-.6-.4-.5-1.4-.8-2.2-.5-1.1.4-1.3.2-.9-.9.4-1.2 0-2.3-.5-1.3zm3.5 3.6c.3.5-.1.9-.9.9s-1.5-.4-1.5-.9c0-.4.4-.8.9-.8.6 0 1.2.4 1.5.8zM239.5 169c-.4.6-1.2.7-1.8.4-.7-.4-.9-.3-.4.1.4.5 0 1.7-1 2.7-.9 1.1-1.1 1.8-.5 1.8.7 0 1.2-.5 1.2-1.1 0-.5.4-.8.9-.4.5.3 1.6-.1 2.4-.9.8-.8 1.8-1.2 2.3-.8.5.4.2-.1-.5-1.1-1.6-2-1.8-2-2.6-.7zm1.5.4c0 .2-.8 1-1.7 1.7-1.6 1.3-1.7 1.2-.4-.4 1.3-1.6 2.1-2.1 2.1-1.3zM243.7 169.1c.7.7 1.5 1 1.8.7.3-.3-.2-.9-1.2-1.2-1.4-.6-1.5-.5-.6.5zM55.6 172.2c.3.5 1 .6 1.5.3 1.3-.9 1.1-1.2-.6-1.2-.8 0-1.2.4-.9.9zM243.7 172.5c-.4.8-.3 1.6.1 1.9.4.3.9-.4.9-1.5.2-2.3-.3-2.5-1-.4zM239.5 174c-1.6.7-1.7.9-.3.9.9.1 2-.4 2.3-.9.7-1.1.7-1.1-2 0zM66.6 176.5c-.9 1.4-1.2 2.5-.7 2.5s1.1-.6 1.4-1.3c.2-.6.8-.9 1.2-.5.4.4.2 1.4-.5 2.3-1.7 2.1-.3 1.9 2.1-.3 1.9-1.8 1.9-1.9 0-3.6-1.7-1.6-1.9-1.5-3.5.9zm3.5.2c1.3 1.6 1.2 1.7-.3.4-1-.7-1.8-1.5-1.8-1.7 0-.8.8-.3 2.1 1.3zM228.6 176.5c-1.1.8-1.7 1.7-1.4 2 .2.3 1.3-.4 2.3-1.5 2.1-2.3 1.8-2.5-.9-.5zM57.6 178.7c-.6 1.4-.5 1.5.5.6.7-.7 1-1.5.7-1.8-.3-.3-.9.2-1.2 1.2zM61 177.9c0 .6.4 1.3 1 1.6.6.3.7-.1.4-.9-.7-1.8-1.4-2.1-1.4-.7zM240.6 177.8c-.3.5.1.9.9.9s1.2-.4.9-.9c-.3-.4-.7-.8-.9-.8-.2 0-.6.4-.9.8zM221.9 181.7c-1.3 1.7-1.3 1.7.6.3 1.1-.8 2.2-1.6 2.4-1.7.2-.2 0-.3-.6-.3s-1.7.8-2.4 1.7zM61.6 181.8c-.3.5.1.9.9.9s1.2-.4.9-.9c-.3-.4-.7-.8-.9-.8-.2 0-.6.4-.9.8zM231 182.2c0 .4.4.8.9.8.6 0 1.2-.4 1.5-.8.3-.5-.1-.9-.9-.9s-1.5.4-1.5.9zM201.1 184.8c-.6 1.2-.6 2.3.1 3.3.8 1.1.9 1 .4-.6-.5-1.7-.4-1.8.6-.5 1.6 1.8 4.8 2.5 4.8 1 0-.6.5-.8 1-.5.6.3 1 .1 1-.4 0-1.4-1.7-1.4-2.5 0-.5.7-1.3.4-2.6-.7-1-.9-1.6-2.1-1.3-2.5.3-.5.3-.9 0-.9s-1 .8-1.5 1.8zM212 185.3c-1.2 2.1-1.2 2.1.6.7 1-.8 2-1.5 2.2-1.6.2-.1-.1-.4-.5-.7-.5-.3-1.5.4-2.3 1.6zM73.6 188.6c-.5 1.3-.4 1.4.7.6.8-.7 1.7-.9 2-.5.4.3.7.1.7-.5 0-1.8-2.7-1.4-3.4.4zM227.5 190c.3.5.8 1 1.1 1 .2 0 .4-.5.4-1 0-.6-.5-1-1.1-1-.5 0-.7.4-.4 1zM69.1 191.3c-.8 1-.7 1.4.2 1.4.8 0 1.4-.6 1.4-1.4 0-.7-.1-1.3-.2-1.3-.2 0-.8.6-1.4 1.3zM82.1 191.6c0 1.1.3 1.4.6.6.3-.7.2-1.6-.1-1.9-.3-.4-.6.2-.5 1.3zM222 192c0 .5.5 1 1 1 .6 0 1-.5 1-1 0-.6-.4-1-1-1-.5 0-1 .4-1 1zM231 192c0 .5.5 1 1 1 .6 0 1-.5 1-1 0-.6-.4-1-1-1-.5 0-1 .4-1 1zM75.7 192.7c-1 .9-.9 2.3.1 2.3.5 0 .9-.7.9-1.5 0-1.7-.1-1.8-1-.8zM73.5 197c.6 1 .3 1.2-1.3.8-1.2-.4-2-.2-1.6.3.7 1.2 3.1 1.2 3.9 0 .3-.5 0-1.3-.6-1.7-.8-.5-.9-.3-.4.6zM78.1 197.7c-.1.7.8 1.7 1.9 2.3 1.6.9 1.8.8 1.4-.5-.3-.8-1-1.3-1.4-1-.5.3-1.1-.1-1.3-.7-.4-1-.6-1-.6-.1zM197.4 198.2c-.3.4-.9.6-1.4.3-.5-.3-1.1-.1-1.4.4-.6 1 1.1 1 2.9 0 .6-.3 2-.4 3.3-.3 1.2.1 2-.1 1.7-.4-.9-.9-4.5-.9-5.1 0zM65.5 202c-.3.5-.1 1 .4 1 .6 0 1.1-.5 1.1-1 0-.6-.2-1-.4-1-.3 0-.8.4-1.1 1zM226.7 205.3c-.3.8.1 1.4.8 1.4.7 0 1.1-.6.8-1.4-.3-.7-.6-1.3-.8-1.3-.2 0-.5.6-.8 1.3zM230 207.4c0 .2.8 1 1.8 1.7 1.5 1.3 1.6 1.2.3-.4s-2.1-2.1-2.1-1.3zM65.3 211.4c0 .8.5 1.4 1.1 1.3.6-.1 1 .4.8 1.1-.1.8.2 1.1.8.7.8-.5.6-1.3-.6-2.6-2.1-2.3-2.1-2.3-2.1-.5zM213 210.4c0 .2.8 1 1.8 1.7 1.5 1.3 1.6 1.2.3-.4s-2.1-2.1-2.1-1.3zM217.1 212.6c0 1.1.3 1.4.6.6.3-.7.2-1.6-.1-1.9-.3-.4-.6.2-.5 1.3zM225 212.1c0 .5.5.7 1 .4.6-.3 1-.8 1-1.1 0-.2-.4-.4-1-.4-.5 0-1 .5-1 1.1zM209 216v1.5c0 1.2 1.4.4 1.6-1 .1-.8-.2-1.5-.7-1.5-.5 0-.9.4-.9 1zM68.6 219.9c.9.9 5.2 1.2 5.7.4.3-.5-1-.8-2.8-.8-1.9 0-3.2.2-2.9.4zM202.5 220c-.4.6-1.2.7-1.8.3-.7-.4-.6 0 .2 1 .7.9 2.1 1.6 3 1.6 1.3-.1 1.3-.2-.2-.6-1.4-.4-1.6-.8-.6-1.9.6-.8.9-1.4.6-1.4-.3 0-.9.5-1.2 1zM210 220c-.8.5-1 1-.5 1 .6 0 1.7-.5 2.5-1s1.1-1 .5-1c-.5 0-1.7.5-2.5 1zM206.6 221.7c-.6 1.4-.5 1.5.5.6.7-.7 1-1.5.7-1.8-.3-.3-.9.2-1.2 1.2zM75 222.1c0 .5.5.7 1 .4.6-.3 1 .4 1.1 1.7 0 2.2.1 2.2.8.3.5-1.2.4-2.3-.3-2.7-1.6-1.1-2.6-1-2.6.3zM182.9 224.7c-1.3 1.6-1.2 1.7.4.4 1.6-1.3 2.1-2.1 1.3-2.1-.2 0-1 .8-1.7 1.7zM83 224.8c0 .5 1.1 1.4 2.5 2 1.8.8 2.3 1.6 1.8 2.9-.3 1-.3 1.5.1 1.1.4-.3.8-1.2 1-2 .1-.7.6-2 1.1-2.8.7-1.2.6-1.3-.6-.3s-2 .9-3.7-.3c-1.2-.8-2.2-1.1-2.2-.6zM79 226c0 .6.7 1 1.5 1s1.5-.2 1.5-.4-.7-.6-1.5-1c-.8-.3-1.5-.1-1.5.4zM197.5 226c-.3.6.1.7.9.4 1.8-.7 2.1-1.4.7-1.4-.6 0-1.3.4-1.6 1z"/><path d="M83 228c0 .6.7 1 1.5 1s1.5-.2 1.5-.4-.7-.6-1.5-1c-.8-.3-1.5-.1-1.5.4zM77.5 230c.3.5.8 1 1.1 1 .2 0 .4-.5.4-1 0-.6-.5-1-1.1-1-.5 0-.7.4-.4 1zM81.3 230.9c0 1.1.5 1.8.9 1.5.4-.3.5-1.1.1-1.9-.7-2.1-1.2-1.9-1 .4zM189.4 230.1c-.4.7-.3.9.4.5.5-.3 1.3 0 1.5.6.4.9.6 1 .6.1.1-1.7-1.6-2.5-2.5-1.2zM89.1 231.6c0 1.1.3 1.4.6.6.3-.7.2-1.6-.1-1.9-.3-.4-.6.2-.5 1.3zM93.1 232.6c0 1.1.3 1.4.6.6.3-.7.2-1.6-.1-1.9-.3-.4-.6.2-.5 1.3zM185.2 231.9c-1.1.7-1 .9.3 1.4.9.4 1.4.3 1-.2-.3-.5.1-1.2.7-1.4.7-.3.9-.6.3-.6-.5 0-1.6.3-2.3.8zM181.5 234c.3.5.8 1 1.1 1 .2 0 .4-.5.4-1 0-.6-.5-1-1.1-1-.5 0-.7.4-.4 1zM138.5 235c-.9 1.5.5 3.2 2.1 2.6.8-.3 1.4-.1 1.4.5s.6.9 1.3.6c1.8-.6 4.8 1.2 4.2 2.6-.4.7.3.1 1.4-1.1l2.1-2.4 1 2.7c.5 1.4 1.4 2.3 2 2 .5-.3 1-.8 1-1.1 0-.3-.4-.2-1 .1-.5.3-1-.1-1-.9 0-1.9 1.1-2.1 2.8-.4.6.6 1.5.9 1.9.5.8-.9-1.2-3-3.2-3.3-.8-.1-1.5.3-1.5.9 0 .6-1 .1-2.2-1-1.3-1.1-3.1-1.9-4-1.8-1 .2-2.1-.1-2.4-.6-.3-.6-1.1-.5-2 .2-1 .8-1.4.8-1.4 0 0-1.4-1.7-1.5-2.5-.1zm2 1c.3.5.1 1-.4 1-.6 0-1.1-.5-1.1-1 0-.6.2-1 .4-1 .3 0 .8.4 1.1 1zm6.8.5c.9 0 1.7.3 1.7.7v1.8c0 .6-1.1.3-2.5-.6-1.4-.9-2.5-1.3-2.5-1 0 .4-.5.4-1 .1-.6-.4-.8-1.1-.4-1.6.3-.5 1.1-.6 1.7-.2.7.4 2 .8 3 .8zM179.3 236c-.1 1 .5 2.1 1.4 2.4 1.2.5 1.3.4.5-.7-.7-.8-.9-1.6-.6-1.9.3-.3.1-.8-.3-1.1-.5-.3-.9.3-1 1.3zM92 236c.8.5 2 1 2.5 1 .6 0 .3-.5-.5-1s-1.9-1-2.5-1c-.5 0-.3.5.5 1zM131.9 236.7c-1.3 1.7-1.3 1.7.6.3 1.1-.8 2.2-1.6 2.4-1.7.2-.2 0-.3-.6-.3s-1.7.8-2.4 1.7zM183.4 236.1c-.3.6-.1 1.6.6 2.2 1 .9 1.1.9.5-.2-.4-.8-.2-1.7.6-2.2.9-.6 1-.9.2-.9-.6 0-1.5.5-1.9 1.1zM127.6 236.8c-.3.5.1.9.9.9s1.2-.4.9-.9c-.3-.4-.7-.8-.9-.8-.2 0-.6.4-.9.8zM168.1 237.9c-.7.5-1 1.4-.7 2 1.1 1.8 2.5 1.3 2.3-.9-.1-1.1-.1-2-.2-2 0 0-.6.4-1.4.9zM171 238.1c0 .5.5.7 1 .4.6-.3 1-.2 1 .4 0 .5-.4 1.3-1 1.6-.5.3-1 1.1-1 1.8 0 .6.7.1 1.6-1.1 1.5-2.2 1.2-4.2-.7-4.2-.5 0-.9.5-.9 1.1zM175 237.9c0 .6.4 1.3 1 1.6.6.3.7-.1.4-.9-.7-1.8-1.4-2.1-1.4-.7zM99 239.4c0 .8.4 1.7.9 2 .5.4.7-.3.4-1.4-.6-2.3-1.3-2.6-1.3-.6zM102.9 239.7c-1.2 1.4-1.2 1.6 0 .8 1.1-.6 1.3-.4.8.7-.6 1.8 1.6 1.9 3.4.1.8-.8.7-1.3-.2-1.8-.7-.5-1-.4-.5.3.3.6.2 1.3-.4 1.7-.9.6-1.4-.7-1.1-2.8.2-1.2-.6-.8-2 1zM162.4 239.2c-.4.7-.3.8.4.4s1.2-.1 1.2.9c0 1.2-.4 1.4-1.9.5-1.1-.5-2.3-1-2.8-1-.4.1.3.7 1.7 1.4 2.9 1.7 4 1.2 4-1.5 0-2.1-1.5-2.5-2.6-.7zM95 239.9c0 .6.4 1.3 1 1.6.6.3.7-.1.4-.9-.7-1.8-1.4-2.1-1.4-.7z"/><path d="M143.8 240.7c.7.3 1.6.2 1.9-.1.4-.3-.2-.6-1.3-.5-1.1 0-1.4.3-.6.6zM133.9 241.2c-.5 1.6-.4 5 .2 5.3.4.3.6-.6.4-2.1-.2-1.8.1-2.4 1.2-2 .8.3 1.1.1.8-.4-.5-.9-2.4-1.4-2.6-.8zM139.9 241.2c-.6 2.1-.5 3.7.2 3.2.5-.3.7-.9.4-1.4-.3-.4.1-1.1.7-1.3 1-.4 1-.6.1-.6-.7-.1-1.3 0-1.4.1zM149.5 241.9c-.3.6.5 1.5 1.7 2.1 2.1 1 2.1 1 .6-.3-1-.8-1.5-1.7-1.1-2 .3-.4.4-.7 0-.7-.3 0-.8.4-1.2.9zM122 242.8c0 .6.5 1.4 1 1.7.6.4.7 1.1.4 1.7-.4.7-.2.8.5.4.9-.6.9-1.2-.1-2.4-.7-1-1.4-1.9-1.5-2.1-.2-.2-.3.1-.3.7zM156.8 242.7c-2.4.6-2.3 1.9 0 1.9 1 0 1.9-.6 1.9-1.3 0-.7-.1-1.2-.1-1.2-.1.1-.9.3-1.8.6zM173.6 243.3c.3 1 .9 1.5 1.2 1.2.3-.3 0-1.1-.7-1.8-1-.9-1.1-.8-.5.6zM107 243.9c0 .6.4 1.3 1 1.6.6.3.7-.1.4-.9-.7-1.8-1.4-2.1-1.4-.7zM111 244.1c0 .5.5.7 1 .4.6-.3 1-.8 1-1.1 0-.2-.4-.4-1-.4-.5 0-1 .5-1 1.1zM113.6 244.9c-.4.5.3.7 1.4.4 2.3-.6 2.6-1.3.6-1.3-.8 0-1.7.4-2 .9zM141 245.5c0 .7 3 1.3 3.4.7.3-.4-.4-.9-1.5-.9-1-.1-1.9 0-1.9.2zM106 248c-.9.6-1 1-.3 1 .6 0 1.5-.5 1.8-1 .8-1.2.4-1.2-1.5 0z"/></svg>